<?xml version="1.0"?>
<svg version="1.1" width="542" height="600" id="svg2" viewBox="0 0 542 600" xml:space="preserve" xmlns:inkscape="http://www.inkscape.org/namespaces/inkscape" xmlns:sodipodi="http://sodipodi.sourceforge.net/DTD/sodipodi-0.dtd" xmlns="http://www.w3.org/2000/svg" xmlns:svg="http://www.w3.org/2000/svg" xmlns:rdf="http://www.w3.org/1999/02/22-rdf-syntax-ns#" xmlns:cc="http://creativecommons.org/ns#" xmlns:dc="http://purl.org/dc/elements/1.1/"><metadata id="metadata72"><RDF><Work><format>image/svg+xml</format><type></type><title></title></Work></RDF></metadata><defs id="defs70"><rect x="-78.862191" y="565.7505" width="443.45696" height="124.5794" id="rect599"></rect><rect x="-78.862191" y="565.7505" width="443.45696" height="124.5794" id="rect1212"></rect><rect x="-78.862191" y="565.7505" width="443.45696" height="124.5794" id="rect1218"></rect><rect x="-78.862191" y="565.7505" width="443.45696" height="124.5794" id="rect1224"></rect></defs><namedview pagecolor="#ffffff" bordercolor="#666666" borderopacity="1" objecttolerance="10" gridtolerance="10" guidetolerance="10" id="namedview68" showgrid="false" showguides="true"></namedview><path id="path4232" style="fill:#e4222b;fill-rule:evenodd;stroke-width:1.05833" d="M 516.0771,65.826451 C 436.96335,30.921392 357.06158,15.058938 270.13184,15.058938 c -86.38546,0 -165.77123,16.037587 -244.366665,50.858889 -14.837329,89.043533 -8.175083,179.729063 23.192068,264.939673 14.816884,40.25203 33.777945,77.90486 57.745107,112.57359 15.51994,22.44924 33.14063,43.83081 53.0951,63.24211 30.05155,29.23457 67.94139,58.97045 110.92574,82.32294 50.30942,-27.84205 98.6435,-65.60771 135.11586,-108.3177 34.56718,-40.47986 61.57404,-86.24537 81.39471,-135.45596 35.88886,-89.10706 43.19008,-185.09979 28.84334,-279.396029 z"></path><path d="M 21.268253,69.520613 C 7.0563321,154.81087 13.437758,241.67392 43.482754,323.29282 c 14.192342,38.55537 32.354171,87.3211 55.311092,120.52849 14.865754,21.50299 46.560374,52.56663 65.673754,71.15973 28.77944,27.99691 65.06405,52.24002 106.22682,74.6065 V 16.573729 C 179.91483,16.122478 85.44038,42.468485 21.268253,69.520613 Z" style="fill:#0093c8;fill-rule:evenodd;stroke-width:1.05833" id="path9"></path><path style="fill:#ffdc00;fill-rule:evenodd" d="M 270.15057,-5.078125e-7 C 182.77148,-5.078125e-7 97.221897,17.287029 10.243173,58.158659 -10.3833,165.32454 1.9352238,259.56001 31.186576,339.02393 78.348397,467.14046 174.80991,559.93101 270.64666,600 365.07414,560.97548 455.76774,475.58305 504.92051,353.54707 537.47565,272.71832 552.68655,173.44058 532.34413,58.158659 444.56541,16.987209 357.52902,-5.078125e-7 270.15057,-5.078125e-7 Z m 0,27.1548995078125 c 83.26556,0 159.79913,15.19371 235.57815,48.62748 13.74202,90.321571 6.74993,182.268471 -27.62619,267.619581 -18.98521,47.13632 -44.85505,90.9734 -77.96519,129.74699 -34.93502,40.90973 -81.23156,77.08321 -129.42039,103.7517 C 229.54443,554.53248 193.25307,526.04894 164.46824,498.04663 145.35486,479.45353 128.47616,458.97455 113.61041,437.47157 90.653477,404.26417 72.492477,368.19693 58.300137,329.64156 28.255145,248.02267 21.873576,161.15946 36.085497,75.869199 111.36806,42.515639 187.40634,27.154899 270.15057,27.154899 Z" id="path5"></path><g id="g3640"><path id="path3616" style="color:#000000;fill:#000000;fill-rule:evenodd;-inkscape-stroke:none" d="M 432.09375 238.35156 C 427.46988 266.45928 416.742 282.31749 402.84375 300.16992 C 381.13149 328.05876 352.4227 349.48968 326.25781 371.89844 C 305.40069 389.76071 285.95615 408.7743 274.58594 428.29688 C 264.11732 446.27139 258.88834 463.74955 258.30469 479.6543 C 253.04228 464.60637 251.3056 450.55856 251.51758 439.66406 C 251.90317 419.87027 258.70917 408.86572 262.16992 397.80078 C 262.66711 396.21157 264.29537 394.2943 266.15625 392.76562 C 268.01713 391.23697 270.13965 390.07126 271.3125 389.7832 C 273.33686 389.28591 276.84913 388.70834 280.24609 389.52539 C 283.64308 390.34244 286.93684 392.45827 288.83008 397.62109 L 290.2832 397.35938 L 290.19141 380.77344 C 290.15401 374.10142 288.34851 370.08012 285.60938 367.84375 C 282.87024 365.60738 279.34774 365.23615 276.0918 365.45703 C 272.42869 365.70564 269.96807 366.96021 266.46094 368.08203 C 267.49991 362.26849 267.01931 355.64421 264.46484 350.16992 C 273.51905 339.5467 284.03766 336.6383 291.04102 336.81641 C 296.42715 336.95339 301.39271 338.72116 305.08203 344.46484 C 304.79644 345.00711 304.30941 345.6632 303.51172 346.27344 C 302.59323 346.97608 301.45097 347.59053 300.39648 347.93164 L 299.87695 348.09961 L 299.87695 372.01758 L 300.75 371.87109 C 304.1842 371.29836 306.47137 368.64989 307.875 365.12695 C 309.27863 361.60404 309.89706 357.1352 310.10742 352.50586 C 310.36086 346.92933 309.85496 341.21563 309.78125 336.52734 C 309.66651 329.27029 307.86386 323.13385 302.81055 317.21875 C 299.87619 313.78464 296.09393 312.01159 292 311.69336 C 287.90607 311.37513 283.5078 312.48022 279.19922 314.69531 C 270.57459 319.13006 263.97307 326.36929 257.19727 336.98828 C 255.95758 335.57194 254.12579 334.04654 251.99219 332.81641 C 266.38305 304.43582 279.62982 292.36724 295.95703 282.91406 C 303.17549 278.7346 312.38871 275.10424 321.06641 273.82031 C 329.63089 272.55313 337.57549 273.61109 342.74805 278.42773 L 342.74805 294.23438 L 344.17773 294.55078 C 346.72128 289.05685 348.07824 282.99259 348.14453 274.45508 C 348.22013 264.72882 345.89959 258.28658 342.28516 254.24023 C 338.6707 250.19391 333.81143 248.61699 329.05664 248.46094 C 313.59156 247.9536 286.73988 258.30916 265.80469 285.87695 C 257.12557 297.30527 249.96978 311.84049 246.11133 329.97266 C 231.90036 327.12836 223.32689 333.36801 218.07617 340.30469 C 211.3282 334.20114 202.53021 332.87022 194.69922 334.31445 C 187.62786 335.61807 182.29649 338.6695 178.36133 343.06836 C 174.42615 347.4672 171.88577 353.18168 170.23828 359.80664 C 168.13138 368.27731 167.21827 378.51329 166.91992 389.84961 L 166.85547 392.27734 L 168.27734 390.30859 C 173.19374 383.49971 178.80492 379.61826 185.27344 378.54297 C 191.60692 377.49012 198.85821 379.17947 207.11328 383.67773 L 200.45703 409.42383 C 170.12601 422.98048 147.53298 434.80486 124.56641 452.19531 L 123.29492 452.19531 L 124.20312 453.39844 C 127.80418 458.1576 131.51142 462.85208 135.32812 467.47461 L 135.97266 468.25586 L 136.53125 467.41211 C 139.40834 463.08073 142.81993 459.08289 146.59961 455.34375 C 157.48029 444.5786 169.33025 436.16647 183.54688 428.03711 C 178.69586 444.38496 179.79039 464.29005 184.61133 481.45312 C 191.22715 505.00498 204.64939 527.50249 225.06836 549.32812 L 225.12109 549.38477 L 225.18359 549.42773 C 231.881 554.14526 238.77051 558.74779 245.83789 563.19336 L 246.99805 563.92188 L 246.98828 562.55273 C 246.96998 559.89096 246.98432 556.59441 246.91602 553.55469 L 246.91406 553.42578 L 246.86719 553.30469 C 235.48864 523.32738 229.1377 508.80479 228.27344 494.69727 C 227.81226 487.16539 230.40015 480.28337 232.74609 475.96289 C 236.80666 489.2445 244.62645 501.5074 252.64258 513.69531 C 263.01599 529.46803 275.24807 545.60653 288.48438 560.72656 L 288.48633 567.46094 L 289.62695 566.76367 C 292.9899 564.70938 296.33538 562.61211 299.66406 560.4707 L 299.98047 560.26758 L 300.00781 559.89453 C 300.71832 550.17517 308.3664 543.32577 315.64844 538.36328 C 323.43429 533.05784 332.49066 529.2302 344.19336 528.11523 L 344.41992 528.0918 L 344.5957 527.94922 C 365.16379 511.23709 384.20009 492.96749 400.70898 473.63477 C 402.30903 471.76107 403.89093 469.87533 405.45703 467.97852 L 404.56445 466.82031 C 394.74755 471.32391 382.83989 475.83103 369.66211 477.72266 C 391.47536 459.65782 409.32453 439.24434 421.81641 420.58594 C 431.2432 406.50561 439.94097 389.30921 446.10742 374.06641 C 449.19066 366.44498 451.6398 359.31394 453.22852 353.29492 C 454.81721 347.27592 455.56628 342.39798 455.16406 339.11328 L 453.70508 338.97461 C 444.50576 367.78603 435.33452 375.68123 419.51953 389.89258 C 407.14207 401.01451 393.22275 407.08061 373.82812 415.54883 C 395.96287 388.81819 409.14997 353.76651 420.60938 317.30273 C 427.68785 294.77962 436.05117 264.44858 433.58203 238.40234 L 432.09375 238.35156 z M 243.16992 350.43164 C 243.96367 350.42065 244.77339 350.50553 245.60938 350.70508 C 250.16086 351.79148 252.29321 356.34727 251.97852 360.33203 C 251.62752 364.77929 249.71442 368.02705 247.04492 370.24609 C 244.37543 372.46516 240.9234 373.63644 237.54492 373.78516 C 228.98217 374.16283 219.095 369.8914 214.94727 362.67188 C 219.92358 361.0286 224.81985 358.5936 230.11719 355.87891 C 232.96631 354.41861 235.52881 352.77515 238.03125 351.68945 C 239.28247 351.1466 240.50864 350.74086 241.75586 350.55078 C 242.22357 350.4795 242.69367 350.43823 243.16992 350.43164 z M 213.45508 373.60156 C 223.53892 385.55854 234.78192 386.57211 241.46484 383.53906 C 236.42266 394.45255 228.57974 400.57882 218.98242 404.00195 C 219.16687 400.86265 219.33725 397.77801 219.38281 395.21484 C 219.43461 392.29903 219.37171 389.96442 219.0332 388.45898 C 218.13906 384.48208 215.48603 381.08995 212.40039 377.62305 L 213.45508 373.60156 z "></path><path id="path3622" style="color:#000000;fill:#ffffff;fill-rule:evenodd;-inkscape-stroke:none" d="M 432.35547 244.63086 C 427.18438 269.28624 416.92026 284.53071 404.02734 301.0918 C 382.15043 329.19215 353.34608 350.67389 327.23438 373.03711 C 306.42721 390.8566 287.09143 409.80568 275.88281 429.05078 C 264.56463 448.48397 259.40922 467.28297 259.70508 483.99023 L 258.25586 484.27539 C 251.68113 467.4623 249.78471 451.70312 250.01953 439.63477 C 250.41162 419.50753 257.3616 408.14768 260.73828 397.35156 C 261.39849 395.24127 263.2118 393.24131 265.20312 391.60547 C 267.19447 389.96962 269.33478 388.72412 270.95508 388.32617 C 273.10234 387.79869 276.82 387.15827 280.5957 388.06641 C 283.61596 388.79284 286.61936 390.65556 288.76562 394.19336 L 288.69141 380.78125 C 288.65547 374.37263 286.97297 370.89256 284.66211 369.00586 C 282.35124 367.11916 279.26178 366.74498 276.19336 366.95312 C 272.44951 367.20722 270.16896 368.6572 265.75391 369.9043 L 264.54688 370.24609 L 264.81836 369.02148 C 266.13183 363.08517 265.67872 355.87485 262.92969 350.32812 L 262.71289 349.88867 L 263.02734 349.51367 C 272.42898 338.2763 283.54731 335.12684 291.07812 335.31836 C 296.91573 335.46682 302.69285 337.53938 306.66406 344.0625 L 306.85156 344.37109 L 306.72656 344.71094 C 306.34448 345.74556 305.47966 346.65714 304.42383 347.46484 C 303.52173 348.15495 302.44283 348.67237 301.37695 349.08398 L 301.37695 370.09961 C 303.68768 369.36336 305.3317 367.45849 306.48242 364.57031 C 307.77923 361.31551 308.40319 356.9752 308.60938 352.4375 C 308.85653 346.99894 308.35635 341.32651 308.28125 336.55078 C 308.17013 329.52315 306.5086 323.85721 301.66992 318.19336 C 298.97988 315.04517 295.62474 313.48032 291.88281 313.18945 C 288.1409 312.89859 284.00396 313.91157 279.88477 316.0293 C 271.35303 320.41625 264.83298 327.59187 257.94141 338.55664 L 257.35742 339.48438 L 256.70508 338.60352 C 255.66776 337.20492 253.20029 335.06239 250.66016 333.7207 L 250.00977 333.37695 L 250.3418 332.7207 C 264.94419 303.7158 278.58521 291.24094 295.20703 281.61719 C 302.5773 277.34981 311.91626 273.65712 320.8457 272.33594 C 329.77515 271.01476 338.37063 272.05943 344.01758 277.50586 L 344.24805 277.72656 L 344.24805 290.30469 C 345.76346 285.92487 346.59383 280.98002 346.64453 274.44336 C 346.71825 264.96021 344.46628 258.93291 341.16602 255.23828 C 337.86573 251.54365 333.46897 250.10735 329.00781 249.96094 C 314.27667 249.47768 287.66962 259.56512 267 286.7832 C 258.33631 298.19119 251.17419 312.7064 247.39844 330.96094 L 247.24414 331.70508 L 246.50391 331.54102 C 231.97856 328.35078 223.88671 334.73551 218.79102 341.74414 L 218.2832 342.44141 L 217.66406 341.8418 C 211.25356 335.65397 202.6762 334.36797 194.9707 335.78906 C 188.17511 337.04184 183.19879 339.91191 179.48047 344.06836 C 175.76214 348.22481 173.30235 353.69977 171.69336 360.16992 C 169.7749 367.88297 168.91556 377.31367 168.55664 387.65234 C 173.31058 381.76707 178.76689 378.10516 185.02734 377.06445 C 191.93661 375.9159 199.69232 377.79438 208.35547 382.61719 L 208.86328 382.90039 L 201.73242 410.49219 L 201.40234 410.63867 C 171.11681 424.16173 148.68071 435.90328 125.88281 453.10352 C 129.13171 457.38126 132.46902 461.6054 135.89258 465.77148 C 138.71246 461.66321 141.94985 457.83387 145.54492 454.27734 C 156.95239 442.99103 169.35927 434.2521 184.39062 425.78906 L 186.07617 424.83984 L 185.4707 426.67773 C 180.11247 442.93653 181.12356 463.49152 186.05469 481.04688 C 192.58883 504.30797 205.84961 526.57162 226.10938 548.24219 C 232.39135 552.66569 238.86879 556.96567 245.47656 561.15039 C 245.46766 558.79096 245.47207 556.21194 245.41797 553.71094 C 234.08643 523.8658 227.66149 509.25309 226.77539 494.78906 C 226.23668 485.99098 229.60505 478.0365 232.23438 473.71484 L 233.13281 472.23633 L 233.59766 473.90234 C 237.39908 487.53577 245.54504 500.17635 253.89453 512.87109 C 264.27787 528.6589 276.53711 544.82869 289.79883 559.95703 L 289.98438 560.16992 L 289.98438 564.76953 C 292.8598 563.00255 295.72803 561.21375 298.57812 559.38281 C 299.524 549.16376 307.49411 542.10562 314.80273 537.125 C 322.69896 531.74437 331.96927 527.83449 343.79297 526.66211 C 364.24077 510.03433 383.1637 491.8685 399.56641 472.66016 C 400.47518 471.59596 401.36602 470.51919 402.26367 469.44727 C 392.27956 473.85476 380.4618 478.14823 367.26562 479.65234 L 364.71289 479.94336 L 366.70703 478.32422 C 389.35446 459.94823 407.76656 438.87623 420.57031 419.75195 C 429.92018 405.78655 438.58721 388.65553 444.7168 373.50391 C 447.78157 365.92808 450.21311 358.84576 451.7793 352.91211 C 452.67403 349.52231 453.18891 346.65152 453.47852 344.14648 C 444.71218 369.23192 435.39409 377.64524 420.52148 391.00977 C 407.30961 402.88147 392.61919 408.97827 371.67773 418.13672 L 370.81055 416.95898 C 393.89457 390.24237 407.40001 354.33018 419.17773 316.85352 C 425.69321 296.12185 433.12854 268.84996 432.35547 244.63086 z M 243.1582 348.9375 C 244.06762 348.92389 244.99978 349.01761 245.95703 349.24609 C 251.32147 350.52653 253.83676 355.84085 253.47266 360.45117 C 253.09214 365.27246 250.96064 368.94058 248.00391 371.39844 C 245.04715 373.85629 241.28937 375.12325 237.61133 375.28516 C 228.20929 375.69985 217.4074 371.03822 213.16016 362.64648 L 212.75781 361.85156 L 213.60742 361.58984 C 218.72162 360.01275 223.82004 357.4217 229.43359 354.54492 C 232.19847 353.12782 234.77047 351.46792 237.43359 350.3125 C 238.76517 349.73479 240.12998 349.28595 241.54492 349.07227 C 242.07553 348.99213 242.61255 348.94567 243.1582 348.9375 z M 212.73438 370.4375 L 213.66797 371.61719 C 224.70695 385.59322 237.04121 385.04021 242.66211 381.23633 L 244.71484 379.8457 L 243.77734 382.14062 C 238.46382 395.13881 229.41234 402.23453 218.41602 405.87695 L 217.36328 406.22461 L 217.43164 405.11914 C 217.65132 401.51445 217.83171 398.0635 217.88281 395.18945 C 217.9339 392.31542 217.84017 389.98935 217.57031 388.78906 C 216.75031 385.14192 214.19273 381.83359 211.02148 378.29688 L 210.75195 377.99609 L 212.35352 371.89062 L 212.73438 370.4375 z "></path></g><g id="g4887"><g id="g4761"><g id="g4705" transform="translate(0,300)"><path id="path4581" style="color:#000000;font-weight:bold;font-size:35px;font-family:&#39;Frutiger Neue LT&#39;;-inkscape-font-specification:&#39;Arial Black, &#39;;letter-spacing:2.82736px;white-space:pre;fill:#000000;stroke:none;stroke-width:4.00001;stroke-linecap:round;stroke-linejoin:round;-inkscape-stroke:none" d="m 97.175781,-144.63086 c -6.076236,0 -11.120247,1.74121 -14.675781,5.33203 -3.549233,3.58464 -5.244142,8.69853 -5.244141,14.91797 0,4.6681 0.942055,8.67769 2.964844,11.89453 1.928895,3.06754 4.322723,5.3543 7.166016,6.67188 a 2.0005844,1.9998221 0 0 0 0.01367,0.008 c 2.809815,1.27503 6.235681,1.8457 10.28125,1.8457 3.366411,0 6.251481,-0.47571 8.650391,-1.55078 l 0.006,-0.002 c 2.3538,-1.04891 4.36409,-2.63802 5.94141,-4.69141 1.58771,-2.06694 2.70933,-4.58954 3.40625,-7.49804 a 2.0005844,1.9998221 0 0 0 -1.36524,-2.37891 l -9.60156,-2.90039 a 2.0005844,1.9998221 0 0 0 -2.53516,1.49219 c -0.43409,2.01054 -1.11219,3.37318 -1.86523,4.19335 a 2.0005844,1.9998221 0 0 0 -0.008,0.0117 c -0.625848,0.69197 -1.534486,1.10743 -3.255864,1.10743 -1.710586,0 -2.666203,-0.45453 -3.482422,-1.44532 -0.640197,-0.79057 -1.337891,-3.10272 -1.337891,-6.82812 0,-2.96498 0.528457,-4.93697 1.158203,-5.8711 a 2.0005844,1.9998221 0 0 0 0.0098,-0.0137 c 1.004167,-1.51792 2.093233,-2.09961 4.039062,-2.09961 0.821705,0 1.478706,0.15697 2.06836,0.45703 0.606492,0.30864 1.096782,0.72705 1.539062,1.33204 a 2.0005844,1.9998221 0 0 0 0.008,0.0117 c 0.13349,0.17985 0.46112,0.81048 0.76367,1.77539 a 2.0005844,1.9998221 0 0 0 2.3418,1.35352 l 9.67383,-2.15039 a 2.0005844,1.9998221 0 0 0 1.46484,-2.58203 c -1.34024,-4.03659 -3.48214,-7.22657 -6.45117,-9.31836 -2.99716,-2.12377 -6.93854,-3.07422 -11.673827,-3.07422 z"></path><path style="color:#000000;font-weight:bold;font-size:35px;font-family:&#39;Frutiger Neue LT&#39;;-inkscape-font-specification:&#39;Arial Black, &#39;;letter-spacing:2.82736px;white-space:pre;fill:#000000;stroke:none;stroke-width:4.00001;stroke-linecap:round;stroke-linejoin:round;-inkscape-stroke:none" d="m 136.67487,-153.0922 c -0.60765,4.3e-4 -1.18217,0.27691 -1.5615,0.75144 l -5.53847,6.91217 c -0.56167,0.97175 -0.21358,2.21516 0.77107,2.75436 -1.95399,0.8722 -3.74967,1.97186 -5.24275,3.46437 -3.64749,3.64611 -5.4224,8.76985 -5.4224,14.92663 0,4.40363 0.8708,8.22936 2.72225,11.36281 1.79786,3.04274 4.22941,5.37326 7.20499,6.82377 0.001,10e-4 0.002,0.002 0.003,0.003 2.98613,1.44671 6.60106,2.11067 10.81163,2.11067 4.18236,0 7.81839,-0.78248 10.81716,-2.456 0.002,0 0.004,0 0.006,0 2.955,-1.65707 5.27677,-4.03247 6.83466,-7.00058 l 0.003,-0.003 c 1.60133,-3.03739 2.33257,-6.76486 2.33257,-11.13074 0,-6.07614 -1.76006,-11.132 -5.37818,-14.71392 -1.41509,-1.40739 -3.12484,-2.44464 -4.98021,-3.29032 0.95303,-0.61441 1.20514,-1.89702 0.55551,-2.8262 l -5.36712,-6.91492 c -0.37908,-0.48816 -0.96264,-0.7737 -1.58085,-0.77354 z m 3.41042,8.42333 0.0387,0.0498 c -0.026,-1.2e-4 -0.0486,-0.006 -0.0746,-0.006 z m -0.1216,12.32974 c 1.85775,0 2.98575,0.50992 3.9521,1.6272 0.005,0.006 0.009,0.011 0.0139,0.0165 0.87663,0.99106 1.5311,2.91297 1.5311,5.97838 0,3.74766 -0.72303,6.07313 -1.46477,6.95362 -0.90352,1.07253 -2.01564,1.58576 -3.93552,1.58576 -1.82861,0 -2.94362,-0.50978 -3.91342,-1.63825 l -0.003,-0.003 c -0.8354,-0.98971 -1.50622,-3.08583 -1.50622,-6.4149 0,-3.36288 0.682,-5.47637 1.52557,-6.46185 0.98462,-1.15026 2.06355,-1.64378 3.8001,-1.64378 z" id="path3968"></path><path id="path4509" style="color:#000000;font-weight:bold;font-size:35px;font-family:&#39;Frutiger Neue LT&#39;;-inkscape-font-specification:&#39;Arial Black, &#39;;letter-spacing:2.82736px;white-space:pre;fill:#000000;stroke:none;stroke-width:4.00001;stroke-linecap:round;stroke-linejoin:round;-inkscape-stroke:none" d="m 165.82617,-144.02539 a 2.0005844,1.9998221 0 0 0 -2,2 v 8.75 a 2.0005844,1.9998221 0 0 0 2,2 h 9.16992 v 24.6875 a 2.0005844,1.9998221 0 0 0 2.00196,2 h 10.95507 a 2.0005844,1.9998221 0 0 0 2,-2 v -24.6875 h 9.16993 a 2.0005844,1.9998221 0 0 0 2.00195,-2 v -8.75 a 2.0005844,1.9998221 0 0 0 -2.00195,-2 z"></path><path style="color:#000000;font-weight:bold;font-size:35px;font-family:&#39;Frutiger Neue LT&#39;;-inkscape-font-specification:&#39;Arial Black, &#39;;letter-spacing:2.82736px;white-space:pre;fill:#000000;stroke:none;stroke-width:4.00001;stroke-linecap:round;stroke-linejoin:round;-inkscape-stroke:none" d="m 208.05872,-144.02517 a 2.0005844,1.9998221 0 0 0 -2.00092,2.00017 v 35.43659 a 2.0005844,1.9998221 0 0 0 2.00092,2.00016 h 29.88952 a 2.0005844,1.9998221 0 0 0 2.00093,-2.00016 v -8.02552 a 2.0005844,1.9998221 0 0 0 -2.00093,-2.00016 H 221.0371 v -2.98643 h 15.0484 a 2.0005844,1.9998221 0 0 0 2.00093,-2.00016 v -7.22712 a 2.0005844,1.9998221 0 0 0 -2.00093,-2.00016 h -15.0484 v -1.63273 h 16.38051 a 2.0005844,1.9998221 0 0 0 1.99816,-2.00016 v -7.56415 a 2.0005844,1.9998221 0 0 0 -1.99816,-2.00017 z" id="path3980"></path><path style="color:#000000;font-weight:bold;font-size:35px;font-family:&#39;Frutiger Neue LT&#39;;-inkscape-font-specification:&#39;Arial Black, &#39;;letter-spacing:2.82736px;white-space:pre;fill:#000000;stroke:none;stroke-width:4.00001;stroke-linecap:round;stroke-linejoin:round;-inkscape-stroke:none" d="m 268.3905,-144.02517 c -1.10516,-1.9e-4 -2.00111,0.89543 -2.00092,2.00017 v 35.43659 c -1.9e-4,1.10473 0.89576,2.00035 2.00092,2.00016 h 18.91207 c 1.0728,0 2.67376,-0.17409 5.16813,-0.50003 1.99614,-0.26027 3.58815,-0.65533 4.8973,-1.41173 l 0.006,-0.003 c 1.76588,-1.01813 3.20948,-2.4511 4.23124,-4.20477 1.03727,-1.78031 1.5532,-3.81477 1.5532,-5.96181 0,-2.60874 -0.74015,-4.99345 -2.25795,-6.85968 -0.72437,-0.9071 -1.64818,-1.63792 -2.68909,-2.25432 0.27777,-0.24454 0.61286,-0.43879 0.85399,-0.71553 1.60903,-1.84672 2.44864,-4.19466 2.44864,-6.70498 0,-2.98812 -1.20348,-5.73047 -3.40212,-7.75477 -2.27825,-2.11188 -5.47016,-3.06655 -9.21421,-3.06655 z m 13.053,11.17771 h 2.83557 c 1.42747,0 2.12432,0.34057 2.16122,0.37296 0.006,0.006 0.0128,0.011 0.0193,0.0165 0.23238,0.1991 0.31783,0.30389 0.31783,0.89786 0,0.70458 -0.12381,0.87269 -0.33717,1.06086 -0.0187,0.0164 -0.75065,0.37297 -2.23308,0.37295 h -2.76371 z m 0,13.46519 h 3.56242 c 1.69435,0 2.59359,0.38423 2.71673,0.48899 0.0119,0.0103 0.0238,0.0204 0.0359,0.0304 0.35171,0.28565 0.42008,0.40611 0.42008,0.96139 0,0.66465 -0.12118,0.88115 -0.47259,1.19071 -0.16995,0.14131 -1.03397,0.50834 -2.67804,0.50832 h -3.58453 z" id="path3986"></path><path style="color:#000000;font-weight:bold;font-size:35px;font-family:&#39;Frutiger Neue LT&#39;;-inkscape-font-specification:&#39;Arial Black, &#39;;letter-spacing:2.82736px;white-space:pre;fill:#000000;stroke:none;stroke-width:4.00001;stroke-linecap:round;stroke-linejoin:round;-inkscape-stroke:none" d="m 310.89083,-144.02517 a 2.0005844,1.9998221 0 0 0 -2.00093,2.00017 v 35.43659 a 2.0005844,1.9998221 0 0 0 2.00093,2.00016 h 28.05165 a 2.0005844,1.9998221 0 0 0 2.00092,-2.00016 v -8.72723 a 2.0005844,1.9998221 0 0 0 -2.00092,-2.00016 h -15.09815 v -24.7092 a 2.0005844,1.9998221 0 0 0 -1.99816,-2.00017 z" id="path3992"></path><path style="color:#000000;font-weight:bold;font-size:35px;font-family:&#39;Frutiger Neue LT&#39;;-inkscape-font-specification:&#39;Arial Black, &#39;;letter-spacing:2.82736px;white-space:pre;fill:#000000;stroke:none;stroke-width:4.00001;stroke-linecap:round;stroke-linejoin:round;-inkscape-stroke:none" d="m 347.89967,-144.02517 a 2.0005844,1.9998221 0 0 0 -2.00093,2.00017 v 35.43659 a 2.0005844,1.9998221 0 0 0 2.00093,2.00016 h 29.88951 a 2.0005844,1.9998221 0 0 0 2.00093,-2.00016 v -8.02552 a 2.0005844,1.9998221 0 0 0 -2.00093,-2.00016 h -16.90837 v -2.98643 h 15.04839 a 2.0005844,1.9998221 0 0 0 1.99817,-2.00016 v -7.22712 a 2.0005844,1.9998221 0 0 0 -1.99817,-2.00016 h -15.04839 v -1.63273 h 16.37773 a 2.0005844,1.9998221 0 0 0 2.00094,-2.00016 v -7.56415 a 2.0005844,1.9998221 0 0 0 -2.00094,-2.00017 z" id="path3998"></path><path style="color:#000000;font-weight:bold;font-size:35px;font-family:&#39;Frutiger Neue LT&#39;;-inkscape-font-specification:&#39;Arial Black, &#39;;letter-spacing:2.82736px;white-space:pre;fill:#000000;stroke:none;stroke-width:4.00001;stroke-linecap:round;stroke-linejoin:round;-inkscape-stroke:none" d="m 387.71643,-144.02517 a 2.0005844,1.9998221 0 0 0 -2.00092,2.00017 v 21.12603 c 0,1.99969 0.38215,4.17789 1.09995,6.56959 0.51095,1.7078 1.44135,3.31635 2.71672,4.80979 a 2.0005844,1.9998221 0 0 0 0.008,0.0113 c 1.28468,1.48314 2.73648,2.67543 4.34732,3.52791 a 2.0005844,1.9998221 0 0 0 0.0166,0.008 c 1.64627,0.85186 3.58032,1.37287 5.7872,1.63549 2.11244,0.2494 4.0765,0.37572 5.895,0.37572 3.15674,0 5.94481,-0.4124 8.35746,-1.30674 l 0.006,-0.003 c 1.84439,-0.68031 3.54414,-1.83546 5.09351,-3.38426 1.60493,-1.6043 2.8017,-3.50964 3.54309,-5.63858 3.4e-4,-9.9e-4 0.003,-10e-4 0.003,-0.003 0.73671,-2.08756 1.10272,-4.30142 1.10272,-6.60275 v -21.12603 a 2.0005844,1.9998221 0 0 0 -2.00094,-2.00017 h -10.93045 a 2.0005844,1.9998221 0 0 0 -1.99817,2.00017 v 21.63436 c 0,1.60003 -0.38552,2.50433 -1.0364,3.15496 -0.64611,0.64586 -1.49958,1.00837 -3.00968,1.00837 -1.51516,0 -2.38208,-0.36732 -3.0456,-1.02495 -0.64778,-0.67291 -1.02533,-1.57978 -1.02533,-3.13838 v -21.63436 a 2.0005844,1.9998221 0 0 0 -1.99817,-2.00017 z" id="path4004"></path><path style="color:#000000;font-weight:bold;font-size:35px;font-family:&#39;Frutiger Neue LT&#39;;-inkscape-font-specification:&#39;Arial Black, &#39;;letter-spacing:2.82736px;white-space:pre;fill:#000000;stroke:none;stroke-width:4.00001;stroke-linecap:round;stroke-linejoin:round;-inkscape-stroke:none" d="m 432.92242,-144.02517 a 2.0005844,1.9998221 0 0 0 -2.00092,2.00017 v 35.43659 a 2.0005844,1.9998221 0 0 0 2.00092,2.00016 h 29.88952 a 2.0005844,1.9998221 0 0 0 2.00092,-2.00016 v -8.02552 a 2.0005844,1.9998221 0 0 0 -2.00092,-2.00016 h -16.90838 v -2.98643 h 15.04565 a 2.0005844,1.9998221 0 0 0 2.00092,-2.00016 v -7.22712 a 2.0005844,1.9998221 0 0 0 -2.00092,-2.00016 h -15.04565 v -1.63273 h 16.37775 a 2.0005844,1.9998221 0 0 0 2.00092,-2.00016 v -7.56415 a 2.0005844,1.9998221 0 0 0 -2.00092,-2.00017 z" id="path4010"></path></g><g id="g4719" transform="translate(0,300)"><path id="path4577" style="color:#000000;font-weight:bold;font-size:26.8599px;font-family:&#39;Frutiger Neue LT&#39;;-inkscape-font-specification:&#39;Arial Black, &#39;;letter-spacing:2.1912px;white-space:pre;fill:#000000;stroke:none;stroke-width:4.00001;stroke-linecap:round;stroke-linejoin:round;-inkscape-stroke:none" d="m 78.578125,-94.744141 a 2.0005844,1.9998221 0 0 0 -2.001953,2 v 27.195313 a 2.0005844,1.9998221 0 0 0 2.001953,2 h 8.443359 a 2.0005844,1.9998221 0 0 0 2,-2 v -9.115234 H 97.5625 a 2.0005844,1.9998221 0 0 0 2,-1.996094 v -5.492188 a 2.0005844,1.9998221 0 0 0 -2,-2 h -8.541016 v -0.75 h 10.339844 a 2.0005844,1.9998221 0 0 0 2.000002,-2 v -5.841797 a 2.0005844,1.9998221 0 0 0 -2.000002,-2 z"></path><path style="color:#000000;font-weight:bold;font-size:26.8599px;font-family:&#39;Frutiger Neue LT&#39;;-inkscape-font-specification:&#39;Arial Black, &#39;;letter-spacing:2.1912px;white-space:pre;fill:#000000;stroke:none;stroke-width:4.00001;stroke-linecap:round;stroke-linejoin:round;-inkscape-stroke:none" d="m 119.98109,-95.209185 c -4.79041,0 -8.85605,1.401807 -11.75129,4.295932 -2.8976,2.896501 -4.29757,6.971491 -4.29757,11.782732 0,3.440384 0.68018,6.466777 2.15293,8.959289 1.41915,2.40183 3.35824,4.263172 5.7264,5.417572 0.002,9.37e-4 0.004,0.0019 0.006,0.0028 2.37496,1.150609 5.21771,1.665875 8.49841,1.665875 3.26749,0 6.1412,-0.609683 8.52881,-1.942151 0.001,-9.32e-4 0.002,-0.0019 0.003,-0.0028 2.34009,-1.312228 4.19525,-3.207787 5.43069,-5.561227 l 0.003,-0.0028 c 1.27511,-2.418945 1.84339,-5.354967 1.84339,-8.757626 0,-4.748466 -1.38978,-8.772535 -4.2644,-11.619728 -2.88656,-2.870885 -6.99132,-4.237924 -11.87843,-4.237924 z m -0.0166,10.362722 c 1.32157,0 2.02564,0.331017 2.68079,1.088499 0.005,0.0055 0.009,0.01106 0.0139,0.01655 0.56167,0.634989 1.05574,1.989778 1.05574,4.279368 0,2.825622 -0.57249,4.511881 -1.01428,5.036313 -0.60356,0.716463 -1.29176,1.052572 -2.66422,1.052572 -1.30136,0 -1.99265,-0.330663 -2.65316,-1.102291 -0.52687,-0.629217 -1.04192,-2.125779 -1.04192,-4.61641 0,-2.523319 0.52615,-4.033164 1.0585,-4.655068 0.67342,-0.786706 1.34185,-1.099546 2.56472,-1.099546 z" id="path3896"></path><path id="path4573" style="color:#000000;font-weight:bold;font-size:26.8599px;font-family:&#39;Frutiger Neue LT&#39;;-inkscape-font-specification:&#39;Arial Black, &#39;;letter-spacing:2.1912px;white-space:pre;fill:#000000;stroke:none;stroke-width:4.00001;stroke-linecap:round;stroke-linejoin:round;-inkscape-stroke:none" d="m 173.61914,-94.744141 a 2.0005844,1.9998221 0 0 0 -2,2 v 6.714844 a 2.0005844,1.9998221 0 0 0 2,1.998047 h 6.57227 v 18.482422 a 2.0005844,1.9998221 0 0 0 2,2 h 8.4082 a 2.0005844,1.9998221 0 0 0 2,-2 V -84.03125 h 6.57227 a 2.0005844,1.9998221 0 0 0 2.00195,-1.998047 v -6.714844 a 2.0005844,1.9998221 0 0 0 -2.00195,-2 z"></path><path style="color:#000000;font-weight:bold;font-size:26.8599px;font-family:&#39;Frutiger Neue LT&#39;;-inkscape-font-specification:&#39;Arial Black, &#39;;letter-spacing:2.1912px;white-space:pre;fill:#000000;stroke:none;stroke-width:4.00001;stroke-linecap:round;stroke-linejoin:round;-inkscape-stroke:none" d="m 206.09552,-94.745051 c -1.10516,-1.91e-4 -2.00112,0.895421 -2.00093,2.000159 v 27.195587 c -1.9e-4,1.104744 0.89577,2.000365 2.00093,2.000174 h 14.51223 c 0.88534,0 2.10602,-0.138619 4.02673,-0.389548 1.56631,-0.204209 2.83693,-0.507332 3.93276,-1.140976 1.42336,-0.819649 2.59741,-1.980937 3.42147,-3.395304 0.83856,-1.439234 1.25473,-3.090003 1.25473,-4.809784 0,-2.084095 -0.6013,-4.037025 -1.83787,-5.558454 -0.47637,-0.596119 -1.11612,-1.035739 -1.75496,-1.472502 0.0899,-0.09194 0.24982,-0.112876 0.33441,-0.209966 1.30533,-1.498132 1.9954,-3.424881 1.9954,-5.447955 0,-2.40323 -0.98693,-4.657685 -2.75266,-6.287802 l -0.003,-0.0028 c -1.85483,-1.72121 -4.43848,-2.480857 -7.39015,-2.480857 z m 10.48275,9.509054 h 1.71073 c 1.04128,0 1.46829,0.273829 1.35146,0.171294 0.006,0.0048 0.0128,0.0095 0.0193,0.01414 0.0749,0.06422 0.0802,-0.01697 0.0802,0.337042 0,0.445108 -0.0459,0.415277 -0.10227,0.464133 0.13246,-0.116694 -0.32107,0.17128 -1.40396,0.17128 h -1.65546 z m 0,10.332339 h 2.26624 c 1.24815,0 1.83843,0.310379 1.78535,0.265215 0.0118,0.01028 0.0238,0.02041 0.0359,0.03041 0.17174,0.139468 0.15201,0.06408 0.15201,0.375714 0,0.398728 -0.0366,0.414514 -0.20452,0.560828 0.007,-0.0085 -0.54512,0.27902 -1.74943,0.27902 h -2.28559 z" id="path3914"></path><path style="color:#000000;font-weight:bold;font-size:26.8599px;font-family:&#39;Frutiger Neue LT&#39;;-inkscape-font-specification:&#39;Arial Black, &#39;;letter-spacing:2.1912px;white-space:pre;fill:#000000;stroke:none;stroke-width:4.00001;stroke-linecap:round;stroke-linejoin:round;-inkscape-stroke:none" d="m 245.56958,-94.745051 c -0.83264,5.99e-4 -1.57785,0.516655 -1.87103,1.295677 l -10.22573,27.195601 c -0.49296,1.308443 0.47511,2.70575 1.8738,2.704642 h 8.59237 c 0.88729,-7.05e-4 1.66811,-0.585538 1.91801,-1.436589 l 0.89545,-3.052731 h 6.58868 l 0.90926,3.058262 c 0.25192,0.848863 1.03225,1.431081 1.91802,1.431058 h 8.79688 c 1.39751,-8.27e-4 2.36357,-1.3973 1.87103,-2.704642 L 256.6106,-93.449374 c -0.29318,-0.779022 -1.03839,-1.295078 -1.87103,-1.295677 z m 4.49903,15.876987 0.29018,0.947589 h -0.58037 z" id="path3920"></path><path style="color:#000000;font-weight:bold;font-size:26.8599px;font-family:&#39;Frutiger Neue LT&#39;;-inkscape-font-specification:&#39;Arial Black, &#39;;letter-spacing:2.1912px;white-space:pre;fill:#000000;stroke:none;stroke-width:4.00001;stroke-linecap:round;stroke-linejoin:round;-inkscape-stroke:none" d="m 270.75526,-94.745051 a 2.0005844,1.9998221 0 0 0 -2.00092,2.000159 v 27.195587 a 2.0005844,1.9998221 0 0 0 2.00092,2.000174 h 21.5293 a 2.0005844,1.9998221 0 0 0 1.99816,-2.000174 v -6.696672 a 2.0005844,1.9998221 0 0 0 -1.99816,-2.00016 h -11.12117 v -18.498755 a 2.0005844,1.9998221 0 0 0 -2.00092,-2.000159 z" id="path3926"></path><path style="color:#000000;font-weight:bold;font-size:26.8599px;font-family:&#39;Frutiger Neue LT&#39;;-inkscape-font-specification:&#39;Arial Black, &#39;;letter-spacing:2.1912px;white-space:pre;fill:#000000;stroke:none;stroke-width:4.00001;stroke-linecap:round;stroke-linejoin:round;-inkscape-stroke:none" d="m 299.20765,-94.745051 a 2.0005844,1.9998221 0 0 0 -2.00092,2.000159 v 27.195587 a 2.0005844,1.9998221 0 0 0 2.00092,2.000174 h 21.52654 a 2.0005844,1.9998221 0 0 0 2.00092,-2.000174 v -6.696672 a 2.0005844,1.9998221 0 0 0 -2.00092,-2.00016 h -11.12117 v -18.498755 a 2.0005844,1.9998221 0 0 0 -1.99816,-2.000159 z" id="path3932"></path><path style="color:#000000;font-weight:bold;font-size:26.8599px;font-family:&#39;Frutiger Neue LT&#39;;-inkscape-font-specification:&#39;Arial Black, &#39;;letter-spacing:2.1912px;white-space:pre;fill:#000000;stroke:none;stroke-width:4.00001;stroke-linecap:round;stroke-linejoin:round;-inkscape-stroke:none" d="m 356.20088,-95.209185 c -4.74894,0 -8.76286,1.373432 -11.59101,4.229635 -2.82558,2.853784 -4.15938,6.922041 -4.15938,11.777202 0,3.644875 0.73604,6.812758 2.34639,9.373689 1.51646,2.411632 3.41888,4.240795 5.696,5.296011 a 2.0005844,1.9998221 0 0 0 0.0166,0.0057 c 2.2399,1.016403 4.93164,1.458683 8.08109,1.458683 2.63024,0 4.90811,-0.369052 6.83188,-1.23214 1.87483,-0.835264 3.48442,-2.106387 4.73977,-3.740649 1.26525,-1.647148 2.15044,-3.646077 2.69738,-5.928652 a 2.0005844,1.9998221 0 0 0 -1.36527,-2.378646 l -7.36805,-2.226703 a 2.0005844,1.9998221 0 0 0 -2.53433,1.491838 c -0.3216,1.489561 -0.81646,2.456443 -1.31829,3.002998 a 2.0005844,1.9998221 0 0 0 -0.0113,0.01132 c -0.37837,0.418346 -0.91897,0.696179 -2.15292,0.696179 -1.20704,0 -1.77231,-0.287027 -2.31047,-0.9393 -0.36343,-0.450385 -0.92307,-2.137506 -0.92307,-4.947922 0,-2.226618 0.41249,-3.654154 0.80975,-4.24344 a 2.0005844,1.9998221 0 0 0 0.008,-0.01414 c 0.69673,-1.05318 1.3428,-1.403433 2.71121,-1.403433 0.56673,0 0.9929,0.105944 1.37633,0.301128 0.40028,0.2037 0.71725,0.471192 1.01705,0.881292 a 2.0005844,1.9998221 0 0 0 0.008,0.01414 c 0.0473,0.06365 0.29299,0.510062 0.51681,1.223865 a 2.0005844,1.9998221 0 0 0 2.34086,1.3537 l 7.42332,-1.652071 a 2.0005844,1.9998221 0 0 0 1.46477,-2.580322 c -1.05201,-3.168478 -2.75217,-5.715377 -5.12668,-7.387335 -2.40409,-1.701506 -5.5311,-2.442199 -9.22526,-2.442199 z" id="path3938"></path><path style="color:#000000;font-weight:bold;font-size:26.8599px;font-family:&#39;Frutiger Neue LT&#39;;-inkscape-font-specification:&#39;Arial Black, &#39;;letter-spacing:2.1912px;white-space:pre;fill:#000000;stroke:none;stroke-width:4.00001;stroke-linecap:round;stroke-linejoin:round;-inkscape-stroke:none" d="m 376.09681,-94.745051 a 2.0005844,1.9998221 0 0 0 -1.99815,2.000159 v 27.195587 a 2.0005844,1.9998221 0 0 0 1.99815,2.000174 h 21.52931 a 2.0005844,1.9998221 0 0 0 2.00092,-2.000174 v -6.696672 a 2.0005844,1.9998221 0 0 0 -2.00092,-2.00016 h -11.12118 v -18.498755 a 2.0005844,1.9998221 0 0 0 -2.00092,-2.000159 z" id="path3944"></path><path style="color:#000000;font-weight:bold;font-size:26.8599px;font-family:&#39;Frutiger Neue LT&#39;;-inkscape-font-specification:&#39;Arial Black, &#39;;letter-spacing:2.1912px;white-space:pre;fill:#000000;stroke:none;stroke-width:4.00001;stroke-linecap:round;stroke-linejoin:round;-inkscape-stroke:none" d="m 403.58468,-94.745051 a 2.0005844,1.9998221 0 0 0 -2.00094,2.000159 v 16.21403 c 0,1.594897 0.30474,3.307465 0.86505,5.174451 0.41355,1.381226 1.16244,2.673693 2.17504,3.859437 a 2.0005844,1.9998221 0 0 0 0.008,0.01132 c 1.01847,1.175815 2.1791,2.128581 3.47122,2.812383 a 2.0005844,1.9998221 0 0 0 0.0166,0.0085 c 1.32758,0.68697 2.86437,1.09758 4.59881,1.303981 a 2.0005844,1.9998221 0 0 0 0.003,0.0028 c 1.63625,0.193189 3.15941,0.290081 4.5767,0.290081 2.46445,0 4.65923,-0.32178 6.57763,-1.033235 h 0.003 c 1.48816,-0.54913 2.84954,-1.47816 4.07647,-2.704642 1.27666,-1.276158 2.23565,-2.800232 2.82728,-4.494836 v -0.0028 c 0.5849,-1.655153 0.8761,-3.409901 0.8761,-5.226942 v -16.21403 a 2.0005844,1.9998221 0 0 0 -2.00092,-2.00016 h -8.38787 a 2.0005844,1.9998221 0 0 0 -2.00092,2.00016 v 16.603564 c 0,1.142772 -0.2581,1.691817 -0.65776,2.091337 -0.39865,0.398487 -0.91018,0.638171 -1.98158,0.638171 -1.07374,0 -1.5913,-0.243659 -2.0037,-0.651991 -0.4013,-0.418035 -0.65223,-0.968919 -0.65223,-2.077517 v -16.603564 a 2.0005844,1.9998221 0 0 0 -2.00093,-2.00016 z" id="path3950"></path><path style="color:#000000;font-weight:bold;font-size:26.8599px;font-family:&#39;Frutiger Neue LT&#39;;-inkscape-font-specification:&#39;Arial Black, &#39;;letter-spacing:2.1912px;white-space:pre;fill:#000000;stroke:none;stroke-width:4.00001;stroke-linecap:round;stroke-linejoin:round;-inkscape-stroke:none" d="m 154.74291,-95.209198 c -4.79041,0 -8.85605,1.401807 -11.75129,4.295931 -2.8976,2.896501 -4.29757,6.971491 -4.29757,11.782732 0,3.440384 0.68018,6.466777 2.15293,8.959289 1.41915,2.40183 3.35824,4.263172 5.7264,5.417572 0.002,9.37e-4 0.004,0.0019 0.006,0.0028 2.37496,1.150609 5.21771,1.665875 8.49841,1.665875 3.26749,0 6.1412,-0.609683 8.52881,-1.942151 0.001,-9.32e-4 0.002,-0.0019 0.003,-0.0028 2.34009,-1.312228 4.19525,-3.207787 5.43069,-5.561227 l 0.003,-0.0028 c 1.27511,-2.418945 1.84339,-5.354967 1.84339,-8.757626 0,-4.748466 -1.38978,-8.772535 -4.2644,-11.619728 -2.88656,-2.870885 -6.99132,-4.237924 -11.87843,-4.237924 z m -0.0166,10.362722 c 1.32157,0 2.02564,0.331017 2.68079,1.088499 0.005,0.0055 0.009,0.01106 0.0139,0.01655 0.56167,0.634989 1.05574,1.989778 1.05574,4.279368 0,2.825622 -0.57249,4.511881 -1.01428,5.036312 -0.60356,0.716464 -1.29176,1.052572 -2.66422,1.052572 -1.30136,0 -1.99265,-0.330663 -2.65316,-1.10229 -0.52687,-0.629217 -1.04192,-2.125779 -1.04192,-4.61641 0,-2.523319 0.52615,-4.033164 1.0585,-4.655068 0.67342,-0.786706 1.34185,-1.099547 2.56472,-1.099547 z" id="path4636"></path><path style="color:#000000;font-weight:bold;font-size:26.8599px;font-family:&#39;Frutiger Neue LT&#39;;-inkscape-font-specification:&#39;Arial Black, &#39;;letter-spacing:2.1912px;white-space:pre;fill:#000000;stroke:none;stroke-width:4.00001;stroke-linecap:round;stroke-linejoin:round;-inkscape-stroke:none" d="m 438.34523,-94.745051 c -1.10516,-1.91e-4 -2.00112,0.895421 -2.00093,2.000159 v 27.195587 c -1.9e-4,1.104744 0.89577,2.000365 2.00093,2.000174 h 14.51223 c 0.88534,0 2.10602,-0.138619 4.02673,-0.389548 1.56631,-0.204209 2.83693,-0.507332 3.93276,-1.140976 1.42336,-0.819649 2.59741,-1.980937 3.42147,-3.395304 0.83856,-1.439234 1.25473,-3.090003 1.25473,-4.809784 0,-2.084095 -0.6013,-4.037025 -1.83787,-5.558454 -0.47637,-0.596119 -1.11612,-1.035739 -1.75496,-1.472502 0.0899,-0.09194 0.24982,-0.112876 0.33441,-0.209966 1.30533,-1.498132 1.9954,-3.424881 1.9954,-5.447955 0,-2.40323 -0.98693,-4.657685 -2.75266,-6.287802 l -0.003,-0.0028 c -1.85483,-1.72121 -4.43848,-2.480857 -7.39015,-2.480857 z m 10.48275,9.509054 h 1.71073 c 1.04128,0 1.46829,0.273829 1.35146,0.171294 0.006,0.0048 0.0128,0.0095 0.0193,0.01414 0.0749,0.06422 0.0802,-0.01697 0.0802,0.337042 0,0.445108 -0.0459,0.415277 -0.10227,0.464133 0.13246,-0.116694 -0.32107,0.17128 -1.40396,0.17128 h -1.65546 z m 0,10.332339 h 2.26624 c 1.24815,0 1.83843,0.310379 1.78535,0.265215 0.0118,0.01028 0.0238,0.02041 0.0359,0.03041 0.17174,0.139468 0.15201,0.06408 0.15201,0.375714 0,0.398728 -0.0366,0.414514 -0.20452,0.560828 0.007,-0.0085 -0.54512,0.27902 -1.74943,0.27902 h -2.28559 z" id="path4638"></path></g><g id="g4694" transform="translate(0,300)"><path style="color:#000000;font-weight:bold;font-size:35px;font-family:&#39;Frutiger Neue LT&#39;;-inkscape-font-specification:&#39;Arial Black, &#39;;letter-spacing:2.82736px;white-space:pre;fill:#000000;stroke:none;stroke-width:4.00001;stroke-linecap:round;stroke-linejoin:round;-inkscape-stroke:none" d="m 200.70854,-190.88531 a 2.0005844,1.9998221 0 0 0 -2.00093,2.00017 v 35.43659 a 2.0005844,1.9998221 0 0 0 2.00093,2.00016 h 10.98021 a 2.0005844,1.9998221 0 0 0 1.99817,-2.00016 v -35.43659 a 2.0005844,1.9998221 0 0 0 -1.99817,-2.00017 z" id="path4022"></path><path style="color:#000000;font-weight:bold;font-size:35px;font-family:&#39;Frutiger Neue LT&#39;;-inkscape-font-specification:&#39;Arial Black, &#39;;letter-spacing:2.82736px;white-space:pre;fill:#000000;stroke:none;stroke-width:4.00001;stroke-linecap:round;stroke-linejoin:round;-inkscape-stroke:none" d="m 268.87543,-190.88531 a 2.0005844,1.9998221 0 0 0 -1.99816,2.00017 v 35.43659 a 2.0005844,1.9998221 0 0 0 1.99816,2.00016 h 10.30311 a 2.0005844,1.9998221 0 0 0 2.00093,-2.00016 v -12.97896 l 9.62323,14.10612 a 2.0005844,1.9998221 0 0 0 1.6527,0.873 h 10.32522 a 2.0005844,1.9998221 0 0 0 2.00093,-2.00016 v -35.43659 a 2.0005844,1.9998221 0 0 0 -2.00093,-2.00017 H 292.4554 a 2.0005844,1.9998221 0 0 0 -2.00092,2.00017 v 13.11157 l -9.6951,-14.23874 a 2.0005844,1.9998221 0 0 0 -1.6527,-0.873 z" id="path4034"></path><path style="color:#000000;font-weight:bold;font-size:35px;font-family:&#39;Frutiger Neue LT&#39;;-inkscape-font-specification:&#39;Arial Black, &#39;;letter-spacing:2.82736px;white-space:pre;fill:#000000;stroke:none;stroke-width:4.00001;stroke-linecap:round;stroke-linejoin:round;-inkscape-stroke:none" d="m 323.32051,-190.88531 c -0.83264,6e-4 -1.57786,0.51666 -1.87103,1.29569 l -13.32384,35.43659 c -0.49254,1.30734 0.47352,2.70381 1.87103,2.70464 h 11.19578 c 0.88831,5.3e-4 1.67059,-0.58454 1.92078,-1.43657 l 1.29618,-4.41474 h 9.48782 l 1.31552,4.42025 c 0.25192,0.84886 1.03225,1.43108 1.91802,1.43106 h 11.4611 c 1.39869,10e-4 2.36676,-1.3962 1.8738,-2.70464 l -13.32661,-35.43659 c -0.29317,-0.77903 -1.03839,-1.29509 -1.87103,-1.29569 z m 5.85877,18.00699 1.20498,3.91745 h -2.40172 z" id="path4040"></path><path style="color:#000000;font-weight:bold;font-size:35px;font-family:&#39;Frutiger Neue LT&#39;;-inkscape-font-specification:&#39;Arial Black, &#39;;letter-spacing:2.82736px;white-space:pre;fill:#000000;stroke:none;stroke-width:4.00001;stroke-linecap:round;stroke-linejoin:round;-inkscape-stroke:none" d="m 371.84296,-191.49033 c -6.07624,0 -11.11976,1.7411 -14.6753,5.33193 -3.54923,3.58464 -5.24552,8.69889 -5.24552,14.91834 0,4.6681 0.94544,8.67639 2.96823,11.89324 1.92889,3.06754 4.32023,5.35423 7.16353,6.67181 a 2.0005844,1.9998221 0 0 0 0.0139,0.008 c 2.80981,1.27503 6.23819,1.84546 10.28376,1.84546 3.36641,0 6.24874,-0.47477 8.64765,-1.54984 l 0.006,-0.003 c 2.3538,-1.04891 4.36466,-2.63761 5.94197,-4.691 1.58772,-2.06694 2.70798,-4.58934 3.40489,-7.49785 a 2.0005844,1.9998221 0 0 0 -1.36527,-2.37864 l -9.60113,-2.90079 a 2.0005844,1.9998221 0 0 0 -2.53432,1.49182 c -0.43409,2.01056 -1.1097,3.37355 -1.86274,4.19372 a 2.0005844,1.9998221 0 0 0 -0.011,0.0113 c -0.62584,0.69196 -1.53427,1.10782 -3.25565,1.10782 -1.70686,0 -2.66169,-0.45306 -3.47674,-1.43935 v -0.003 c -0.64058,-0.78893 -1.34317,-3.10395 -1.34317,-6.83206 0,-2.96497 0.52825,-4.93652 1.158,-5.87064 a 2.0005844,1.9998221 0 0 0 0.011,-0.0142 c 1.00417,-1.51792 2.09195,-2.09962 4.03778,-2.09962 0.8217,0 1.4776,0.15852 2.06725,0.4586 0.6065,0.30864 1.09987,0.72662 1.54215,1.33161 a 2.0005844,1.9998221 0 0 0 0.008,0.0113 c 0.13349,0.17985 0.45747,0.81148 0.76002,1.77639 a 2.0005844,1.9998221 0 0 0 2.34363,1.3537 l 9.67298,-2.1521 a 2.0005844,1.9998221 0 0 0 1.46477,-2.58032 c -1.34072,-4.03803 -3.48259,-7.22945 -6.45326,-9.32122 -2.99657,-2.12133 -6.93842,-3.07206 -11.67115,-3.07206 z" id="path4046"></path><path style="color:#000000;font-weight:bold;font-size:35px;font-family:&#39;Frutiger Neue LT&#39;;-inkscape-font-specification:&#39;Arial Black, &#39;;letter-spacing:2.82736px;white-space:pre;fill:#000000;stroke:none;stroke-width:4.00001;stroke-linecap:round;stroke-linejoin:round;-inkscape-stroke:none" d="m 172.76834,-191.48961 c -4.25052,0 -7.75991,0.57925 -10.55737,1.91176 -0.002,0.001 -0.004,0.002 -0.006,0.003 -3.41191,1.64282 -6.10266,4.13892 -7.89316,7.35696 v -0.006 c -1.78407,3.1885 -2.64763,6.91349 -2.64763,11.05616 0,3.93743 0.78577,7.5297 2.39614,10.67766 9.9e-4,0.003 0.002,0.005 0.003,0.008 1.62905,3.14951 3.99595,5.6198 6.98942,7.2437 0.002,0.001 0.004,0.002 0.006,0.003 3.04794,1.64342 6.81594,2.39246 11.25106,2.39246 3.5719,0 6.72195,-0.40907 9.45741,-1.27911 0.003,-9.9e-4 0.005,-0.002 0.008,-0.003 2.76645,-0.89207 5.77564,-2.49233 9.12024,-4.77111 0.54641,-0.37253 0.87332,-0.99093 0.87334,-1.65207 v -15.10897 c 1.9e-4,-1.10366 -0.89409,-1.99883 -1.99817,-2.00016 h -10.40536 l 10.27271,-1.83164 c 1.16334,-0.20842 1.89334,-1.37417 1.57255,-2.51125 -0.70728,-2.50987 -1.79699,-4.67414 -3.30816,-6.4149 -1.49837,-1.76104 -3.42898,-3.07481 -5.67114,-3.88982 -2.34378,-0.85804 -5.42724,-1.18518 -9.46294,-1.18518 z m -0.24045,11.78273 c 1.31877,0 2.20183,0.27912 2.83281,0.71276 0.004,0.003 0.007,0.005 0.011,0.008 0.67085,0.45395 1.12405,1.04301 1.44542,2.03056 0.32275,0.89043 1.22608,1.43245 2.16399,1.29845 h -6.1382 c -1.10516,-1.9e-4 -2.00112,0.89542 -2.00093,2.00016 v 7.37352 c -1.9e-4,1.10474 0.89577,2.00035 2.00093,2.00016 h 5.32567 v 0.0829 c -0.87687,0.46337 -1.78036,0.95437 -2.42654,1.16031 -0.90988,0.29 -1.86691,0.4365 -2.89913,0.4365 -2.14895,0 -3.47749,-0.5823 -4.53801,-1.77915 l -0.003,-0.003 c -0.92721,-1.06411 -1.65823,-3.31726 -1.65823,-6.90112 0,-3.34575 0.69467,-5.48928 1.64717,-6.60551 l 0.003,-0.003 c 1.07561,-1.25492 2.29895,-1.8123 4.23401,-1.8123 z" id="path4649"></path><path style="color:#000000;font-weight:bold;font-size:35px;font-family:&#39;Frutiger Neue LT&#39;;-inkscape-font-specification:&#39;Arial Black, &#39;;letter-spacing:2.82736px;white-space:pre;fill:#000000;stroke:none;stroke-width:4.00001;stroke-linecap:round;stroke-linejoin:round;-inkscape-stroke:none" d="m 241.29763,-191.48961 c -4.25052,0 -7.75991,0.57925 -10.55737,1.91176 -0.002,0.001 -0.004,0.002 -0.006,0.003 -3.41191,1.64282 -6.10266,4.13892 -7.89316,7.35696 v -0.006 c -1.78407,3.1885 -2.64763,6.91349 -2.64763,11.05616 0,3.93743 0.78577,7.5297 2.39614,10.67766 9.9e-4,0.003 0.002,0.005 0.003,0.008 1.62905,3.14951 3.99595,5.6198 6.98942,7.2437 0.002,0.001 0.004,0.002 0.006,0.003 3.04794,1.64342 6.81594,2.39246 11.25106,2.39246 3.5719,0 6.72195,-0.40907 9.45741,-1.27911 0.003,-9.9e-4 0.005,-0.002 0.008,-0.003 2.76645,-0.89207 5.77564,-2.49233 9.12024,-4.77111 0.54641,-0.37253 0.87332,-0.99093 0.87334,-1.65207 v -15.10897 c 1.9e-4,-1.10366 -0.89409,-1.99883 -1.99817,-2.00016 h -10.40536 l 10.27271,-1.83164 c 1.16334,-0.20842 1.89334,-1.37417 1.57255,-2.51125 -0.70728,-2.50987 -1.79699,-4.67414 -3.30816,-6.4149 -1.49837,-1.76104 -3.42898,-3.07481 -5.67114,-3.88982 -2.34378,-0.85804 -5.42724,-1.18518 -9.46294,-1.18518 z m -0.24045,11.78273 c 1.31877,0 2.20183,0.27912 2.83281,0.71276 0.004,0.003 0.007,0.005 0.011,0.008 0.67085,0.45395 1.12405,1.04301 1.44542,2.03056 0.32275,0.89043 1.22608,1.43245 2.16399,1.29845 h -6.1382 c -1.10516,-1.9e-4 -2.00112,0.89542 -2.00093,2.00016 v 7.37352 c -1.9e-4,1.10474 0.89577,2.00035 2.00093,2.00016 h 5.32567 v 0.0829 c -0.87687,0.46337 -1.78036,0.95437 -2.42654,1.16031 -0.90988,0.29 -1.86691,0.4365 -2.89913,0.4365 -2.14895,0 -3.47749,-0.5823 -4.53801,-1.77915 l -0.003,-0.003 c -0.92721,-1.06411 -1.65823,-3.31726 -1.65823,-6.90112 0,-3.34575 0.69467,-5.48928 1.64717,-6.60551 l 0.003,-0.003 c 1.07561,-1.25492 2.29895,-1.8123 4.23401,-1.8123 z" id="path4651"></path></g><g id="g4686" transform="translate(0,300)"><path id="path4496" style="color:#000000;font-weight:bold;font-size:35px;font-family:&#39;Frutiger Neue LT&#39;;-inkscape-font-specification:&#39;Arial Black, &#39;;letter-spacing:2.82736px;white-space:pre;fill:#000000;stroke:none;stroke-width:4.00001;stroke-linecap:round;stroke-linejoin:round;-inkscape-stroke:none" d="m 87.605469,-237.74609 a 2.0005844,1.9998221 0 0 0 -2.001953,2 v 35.4375 a 2.0005844,1.9998221 0 0 0 2.001953,2 h 8.970703 a 2.0005844,1.9998221 0 0 0 2,-2 v -11.13868 l 2.976558,11.63282 a 2.0005844,1.9998221 0 0 0 1.94141,1.50586 h 8.09961 a 2.0005844,1.9998221 0 0 0 1.9375,-1.50196 L 116.5332,-211.5 v 11.19141 a 2.0005844,1.9998221 0 0 0 2,2 h 8.94922 a 2.0005844,1.9998221 0 0 0 1.99805,-2 v -35.4375 a 2.0005844,1.9998221 0 0 0 -1.99805,-2 h -14.36523 a 2.0005844,1.9998221 0 0 0 -1.9375,1.5039 l -3.60352,14.03321 -3.62109,-14.03711 a 2.0005844,1.9998221 0 0 0 -1.9375,-1.5 z"></path><path style="color:#000000;font-weight:bold;font-size:35px;font-family:&#39;Frutiger Neue LT&#39;;-inkscape-font-specification:&#39;Arial Black, &#39;;letter-spacing:2.82736px;white-space:pre;fill:#000000;stroke:none;stroke-width:4.00001;stroke-linecap:round;stroke-linejoin:round;-inkscape-stroke:none" d="m 181.14019,-237.74545 c -1.10516,-1.9e-4 -2.00111,0.89543 -2.00092,2.00017 v 35.43659 c -1.9e-4,1.10473 0.89576,2.00035 2.00092,2.00016 h 11.00233 c 1.10516,1.9e-4 2.00112,-0.89542 2.00093,-2.00016 v -12.07281 c 0.15048,0.0658 0.34183,0.0485 0.48917,0.14918 0.059,0.0465 0.70252,0.75389 1.37633,2.0278 0.003,0.006 0.005,0.011 0.008,0.0165 l 5.85077,10.82961 c 0.34927,0.64673 1.02526,1.04984 1.76049,1.04982 h 12.38142 c 1.49958,0.002 2.46786,-1.58545 1.77983,-2.91737 l -5.28698,-10.24945 c -0.39314,-0.786 -0.96358,-1.55901 -1.77154,-2.5527 l -0.008,-0.008 c -0.5486,-0.68822 -0.99395,-1.08563 -1.462,-1.53051 0.053,-0.0306 0.1386,-0.0405 0.1907,-0.0719 1.72691,-1.04334 3.14009,-2.45137 4.14556,-4.15228 0.002,-0.003 0.004,-0.005 0.006,-0.008 1.03917,-1.77789 1.53109,-3.85804 1.53109,-6.10824 0,-2.57991 -0.65052,-4.94277 -2.00645,-6.87624 -1.32119,-1.90041 -3.17089,-3.28816 -5.35054,-3.9948 -2.14164,-0.69433 -4.87972,-0.96694 -8.37957,-0.96694 z m 13.00326,11.15285 h 2.81069 c 1.79474,0 2.76339,0.41929 2.79687,0.44754 0.25626,0.21632 0.37863,0.38608 0.37863,1.10783 0,0.37084 -0.0679,0.55466 -0.27637,0.82052 -0.007,0.009 -0.013,0.0183 -0.0194,0.0276 -0.18733,0.24745 -0.27701,0.29905 -0.56379,0.35638 -0.0148,0.004 -0.0295,0.007 -0.0442,0.0111 -1.38635,0.31142 -2.39565,0.43373 -2.46523,0.43373 h -2.61723 z" id="path4064"></path><path style="color:#000000;font-weight:bold;font-size:35px;font-family:&#39;Frutiger Neue LT&#39;;-inkscape-font-specification:&#39;Arial Black, &#39;;letter-spacing:2.82736px;white-space:pre;fill:#000000;stroke:none;stroke-width:4.00001;stroke-linecap:round;stroke-linejoin:round;-inkscape-stroke:none" d="m 223.95282,-237.74545 a 2.0005844,1.9998221 0 0 0 -2.00093,2.00017 v 35.43659 a 2.0005844,1.9998221 0 0 0 2.00093,2.00016 h 10.98022 a 2.0005844,1.9998221 0 0 0 1.99816,-2.00016 v -35.43659 a 2.0005844,1.9998221 0 0 0 -1.99816,-2.00017 z" id="path4070"></path><path style="color:#000000;font-weight:bold;font-size:35px;font-family:&#39;Frutiger Neue LT&#39;;-inkscape-font-specification:&#39;Arial Black, &#39;;letter-spacing:2.82736px;white-space:pre;fill:#000000;stroke:none;stroke-width:4.00001;stroke-linecap:round;stroke-linejoin:round;-inkscape-stroke:none" d="m 264.54066,-238.35047 c -4.25052,0 -7.75991,0.57925 -10.55737,1.91176 -0.002,10e-4 -0.004,0.002 -0.006,0.003 -3.41191,1.64282 -6.10266,4.13892 -7.89316,7.35696 v -0.006 c -1.78407,3.1885 -2.64763,6.91349 -2.64763,11.05616 0,3.93743 0.78577,7.5297 2.39614,10.67766 9.9e-4,0.003 0.002,0.005 0.003,0.008 1.62905,3.14951 3.99595,5.6198 6.98942,7.2437 0.002,0.001 0.004,0.002 0.006,0.003 3.04794,1.64342 6.81594,2.39246 11.25106,2.39246 3.5719,0 6.72195,-0.40907 9.45741,-1.27911 0.003,-9.9e-4 0.005,-0.002 0.008,-0.003 2.76645,-0.89207 5.77564,-2.49233 9.12024,-4.77111 0.54641,-0.37253 0.87332,-0.99093 0.87334,-1.65207 v -15.10897 c 1.9e-4,-1.10366 -0.89409,-1.99883 -1.99817,-2.00016 h -10.40536 l 10.27271,-1.83164 c 1.16334,-0.20842 1.89334,-1.37417 1.57255,-2.51125 -0.70728,-2.50987 -1.79699,-4.67414 -3.30816,-6.4149 -1.49837,-1.76104 -3.42898,-3.07481 -5.67114,-3.88982 -2.34378,-0.85804 -5.42724,-1.18518 -9.46294,-1.18518 z m -0.24045,11.78273 c 1.31877,0 2.20183,0.27912 2.83281,0.71276 0.004,0.003 0.007,0.005 0.011,0.008 0.67085,0.45395 1.12405,1.04301 1.44542,2.03056 0.32275,0.89043 1.22608,1.43245 2.16399,1.29845 h -6.1382 c -1.10516,-1.9e-4 -2.00112,0.89542 -2.00093,2.00016 v 7.37352 c -1.9e-4,1.10474 0.89577,2.00035 2.00093,2.00016 h 5.32567 v 0.0829 c -0.87687,0.46337 -1.78036,0.95437 -2.42654,1.16031 -0.90988,0.29 -1.86691,0.4365 -2.89913,0.4365 -2.14895,0 -3.47749,-0.5823 -4.53801,-1.77915 l -0.003,-0.003 c -0.92721,-1.06411 -1.65823,-3.31726 -1.65823,-6.90112 0,-3.34575 0.69467,-5.48928 1.64717,-6.60551 l 0.003,-0.003 c 1.07561,-1.25492 2.29895,-1.8123 4.23401,-1.8123 z" id="path4076"></path><path style="color:#000000;font-weight:bold;font-size:35px;font-family:&#39;Frutiger Neue LT&#39;;-inkscape-font-specification:&#39;Arial Black, &#39;;letter-spacing:2.82736px;white-space:pre;fill:#000000;stroke:none;stroke-width:4.00001;stroke-linecap:round;stroke-linejoin:round;-inkscape-stroke:none" d="m 292.11971,-237.74545 a 2.0005844,1.9998221 0 0 0 -2.00092,2.00017 v 35.43659 a 2.0005844,1.9998221 0 0 0 2.00092,2.00016 h 10.30311 a 2.0005844,1.9998221 0 0 0 2.00093,-2.00016 v -12.97896 l 9.62324,14.10612 a 2.0005844,1.9998221 0 0 0 1.65269,0.873 h 10.32522 a 2.0005844,1.9998221 0 0 0 2.00093,-2.00016 v -35.43659 a 2.0005844,1.9998221 0 0 0 -2.00093,-2.00017 h -10.32522 a 2.0005844,1.9998221 0 0 0 -2.00092,2.00017 v 13.11157 l -9.69509,-14.23874 a 2.0005844,1.9998221 0 0 0 -1.6527,-0.873 z" id="path4082"></path><path style="color:#000000;font-weight:bold;font-size:35px;font-family:&#39;Frutiger Neue LT&#39;;-inkscape-font-specification:&#39;Arial Black, &#39;;letter-spacing:2.82736px;white-space:pre;fill:#000000;stroke:none;stroke-width:4.00001;stroke-linecap:round;stroke-linejoin:round;-inkscape-stroke:none" d="m 379.41701,-237.74545 a 2.0005844,1.9998221 0 0 0 -2.00093,2.00017 v 35.43659 a 2.0005844,1.9998221 0 0 0 2.00093,2.00016 h 10.30034 a 2.0005844,1.9998221 0 0 0 2.00094,-2.00016 v -12.97896 l 9.62323,14.10612 a 2.0005844,1.9998221 0 0 0 1.6527,0.873 h 10.32521 a 2.0005844,1.9998221 0 0 0 2.00092,-2.00016 v -35.43659 a 2.0005844,1.9998221 0 0 0 -2.00092,-2.00017 h -10.32521 a 2.0005844,1.9998221 0 0 0 -2.00094,2.00017 v 13.11157 l -9.69509,-14.23874 a 2.0005844,1.9998221 0 0 0 -1.6527,-0.873 z" id="path4094"></path><path style="color:#000000;font-weight:bold;font-size:35px;font-family:&#39;Frutiger Neue LT&#39;;-inkscape-font-specification:&#39;Arial Black, &#39;;letter-spacing:2.82736px;white-space:pre;fill:#000000;stroke:none;stroke-width:4.00001;stroke-linecap:round;stroke-linejoin:round;-inkscape-stroke:none" d="m 424.57602,-237.74545 a 2.0005844,1.9998221 0 0 0 -2.00092,2.00017 v 35.43659 a 2.0005844,1.9998221 0 0 0 2.00092,2.00016 h 29.88953 a 2.0005844,1.9998221 0 0 0 2.00092,-2.00016 v -8.02552 a 2.0005844,1.9998221 0 0 0 -2.00092,-2.00016 H 437.5544 v -2.98643 h 15.0484 a 2.0005844,1.9998221 0 0 0 2.00092,-2.00016 v -7.22712 a 2.0005844,1.9998221 0 0 0 -2.00092,-2.00016 h -15.0484 v -1.63273 h 16.37774 a 2.0005844,1.9998221 0 0 0 2.00094,-2.00016 v -7.56415 a 2.0005844,1.9998221 0 0 0 -2.00094,-2.00017 z" id="path4100"></path><path style="color:#000000;font-weight:bold;font-size:35px;font-family:&#39;Frutiger Neue LT&#39;;-inkscape-font-specification:&#39;Arial Black, &#39;;letter-spacing:2.82736px;white-space:pre;fill:#000000;stroke:none;stroke-width:4.00001;stroke-linecap:round;stroke-linejoin:round;-inkscape-stroke:none" d="m 346.56478,-237.74545 c -0.83264,6e-4 -1.57786,0.51666 -1.87103,1.29569 l -13.32384,35.43659 c -0.49254,1.30734 0.47352,2.70381 1.87103,2.70464 h 11.19578 c 0.88831,5.3e-4 1.67059,-0.58454 1.92078,-1.43657 l 1.29618,-4.41474 h 9.48782 l 1.31552,4.42025 c 0.25192,0.84886 1.03225,1.43108 1.91802,1.43106 h 11.4611 c 1.39869,10e-4 2.36676,-1.3962 1.8738,-2.70464 l -13.32661,-35.43659 c -0.29317,-0.77903 -1.03839,-1.29509 -1.87103,-1.29569 z m 5.85877,18.00699 1.20498,3.91745 h -2.40172 z" id="path4662"></path><path style="color:#000000;font-weight:bold;font-size:35px;font-family:&#39;Frutiger Neue LT&#39;;-inkscape-font-specification:&#39;Arial Black, &#39;;letter-spacing:2.82736px;white-space:pre;fill:#000000;stroke:none;stroke-width:4.00001;stroke-linecap:round;stroke-linejoin:round;-inkscape-stroke:none" d="m 148.21335,-237.74545 c -0.83264,6e-4 -1.57786,0.51666 -1.87103,1.29569 l -13.32384,35.43659 c -0.49254,1.30734 0.47352,2.70381 1.87103,2.70464 h 11.19578 c 0.88831,5.3e-4 1.67059,-0.58454 1.92078,-1.43657 l 1.29618,-4.41474 h 9.48782 l 1.31552,4.42025 c 0.25192,0.84886 1.03225,1.43108 1.91802,1.43106 h 11.4611 c 1.39869,10e-4 2.36676,-1.3962 1.8738,-2.70464 l -13.32661,-35.43659 c -0.29317,-0.77903 -1.03839,-1.29509 -1.87103,-1.29569 z m 5.85877,18.00699 1.20498,3.91745 h -2.40172 z" id="path4675"></path></g></g><g id="g4803"><g aria-label="MARIGNANE" transform="matrix(1.4150193,0,0,1.4144801,195.68836,-746.3446)" id="text597" style="font-weight:bold;font-size:35px;line-height:1.25;font-family:&#39;Frutiger Neue LT&#39;;-inkscape-font-specification:&#39;Frutiger Neue LT Bold&#39;;letter-spacing:2.82736px;white-space:pre;shape-inside:url(#rect599);fill:#ffffff;stroke-width:0.141368"><path d="m -76.383301,573.07129 h 10.185547 l 3.930664,15.24414 3.913574,-15.24414 h 10.151368 V 598.125 h -6.323243 v -19.10645 l -4.904785,19.10645 h -5.725097 l -4.887696,-19.10645 V 598.125 h -6.340332 z" style="font-weight:normal;font-family:&#39;Arial Black&#39;;-inkscape-font-specification:&#39;Arial Black, &#39;;fill:#ffffff" id="path3244"></path><path d="m -25.02079,593.98926 h -8.818359 l -1.213379,4.13574 h -7.912598 l 9.416504,-25.05371 h 8.442383 l 9.416504,25.05371 h -8.100586 z m -1.623535,-5.41748 -2.768555,-9.00635 -2.751465,9.00635 z" style="font-weight:normal;font-family:&#39;Arial Black&#39;;-inkscape-font-specification:&#39;Arial Black, &#39;;fill:#ffffff" id="path3246"></path><path d="M -10.281815,598.125 V 573.07129 H 2.6210175 q 3.5888671,0 5.4858398,0.61523 1.8969727,0.61524 3.0590817,2.29004 1.16211,1.65772 1.16211,4.0503 0,2.08496 -0.888672,3.60595 -0.888672,1.50391 -2.4438478,2.44385 -0.991211,0.59814 -2.7172852,0.99121 1.3842774,0.46143 2.0166016,0.92285 0.4272461,0.30762 1.2304687,1.31592 0.8203127,1.0083 1.0937497,1.55518 L 14.36174,598.125 H 5.6117401 L 1.4759979,590.46875 Q 0.68986511,588.98193 0.07463074,588.5376 -0.76277161,587.95654 -1.8223419,587.95654 H -2.5059357 V 598.125 Z m 7.7758793,-14.90234 h 3.26416019 q 0.52978511,0 2.05078121,-0.3418 0.769043,-0.15381 1.2475586,-0.78613 0.4956055,-0.63233 0.4956055,-1.45264 0,-1.21338 -0.769043,-1.86279 -0.7690429,-0.64942 -2.88818356,-0.64942 H -2.5059357 Z" style="font-weight:normal;font-family:&#39;Arial Black&#39;;-inkscape-font-specification:&#39;Arial Black, &#39;;fill:#ffffff" id="path3248"></path><path d="m 19.974739,573.07129 h 7.758789 V 598.125 h -7.758789 z" style="font-weight:normal;font-family:&#39;Arial Black&#39;;-inkscape-font-specification:&#39;Arial Black, &#39;;fill:#ffffff" id="path3250"></path><path d="m 48.710297,589.05029 v -5.2124 h 11.96289 v 10.68115 q -3.435058,2.34131 -6.083984,3.1958 -2.631836,0.83741 -6.254883,0.83741 -4.460449,0 -7.280273,-1.521 -2.802735,-1.521 -4.357911,-4.52881 -1.538085,-3.00781 -1.538085,-6.9043 0,-4.10156 1.691894,-7.12646 1.691895,-3.04199 4.956055,-4.61426 2.546386,-1.21338 6.853027,-1.21338 4.152832,0 6.203613,0.75196 2.067871,0.75195 3.417969,2.3413 1.367188,1.57227 2.050781,3.99903 l -7.468261,1.33301 q -0.461426,-1.41846 -1.572266,-2.17041 -1.09375,-0.75196 -2.802734,-0.75196 -2.546387,0 -4.067383,1.77735 -1.503906,1.76025 -1.503906,5.58838 0,4.06738 1.520996,5.81054 1.538086,1.74317 4.272461,1.74317 1.298828,0 2.478027,-0.37598 1.179199,-0.37598 2.700195,-1.28174 v -2.3584 z" style="font-weight:normal;font-family:&#39;Arial Black&#39;;-inkscape-font-specification:&#39;Arial Black, &#39;;fill:#ffffff" id="path3252"></path><path d="m 68.148987,573.07129 h 7.229004 l 9.433593,13.85986 v -13.85986 h 7.297364 V 598.125 H 84.811584 L 75.42926,584.36768 V 598.125 h -7.280273 z" style="font-weight:normal;font-family:&#39;Arial Black&#39;;-inkscape-font-specification:&#39;Arial Black, &#39;;fill:#ffffff" id="path3254"></path><path d="m 115.15358,593.98926 h -8.81836 l -1.21338,4.13574 h -7.912596 l 9.416506,-25.05371 h 8.44238 l 9.4165,25.05371 h -8.10058 z m -1.62354,-5.41748 -2.76855,-9.00635 -2.75146,9.00635 z" style="font-weight:normal;font-family:&#39;Arial Black&#39;;-inkscape-font-specification:&#39;Arial Black, &#39;;fill:#ffffff" id="path3256"></path><path d="m 129.84129,573.07129 h 7.22901 l 9.43359,13.85986 v -13.85986 h 7.29736 V 598.125 h -7.29736 l -9.38232,-13.75732 V 598.125 h -7.28028 z" style="font-weight:normal;font-family:&#39;Arial Black&#39;;-inkscape-font-specification:&#39;Arial Black, &#39;;fill:#ffffff" id="path3258"></path><path d="m 161.75555,573.07129 h 20.74707 v 5.34912 h -12.98828 v 3.98193 h 12.04834 v 5.10987 h -12.04834 v 4.93896 h 13.36426 v 5.67383 h -21.12305 z" style="font-weight:normal;font-family:&#39;Arial Black&#39;;-inkscape-font-specification:&#39;Arial Black, &#39;;fill:#ffffff" id="path3260"></path></g><g aria-label="GIGNAC" transform="matrix(1.4150193,0,0,1.4144801,262.98044,-699.48446)" id="text1210" style="font-weight:bold;font-size:35px;line-height:1.25;font-family:&#39;Frutiger Neue LT&#39;;-inkscape-font-specification:&#39;Frutiger Neue LT Bold&#39;;letter-spacing:2.82736px;white-space:pre;shape-inside:url(#rect1212);fill:#ffffff;stroke-width:0.141368"><path d="m -63.702637,589.05029 v -5.2124 h 11.962891 v 10.68115 q -3.435059,2.34131 -6.083984,3.1958 -2.631836,0.83741 -6.254883,0.83741 -4.460449,0 -7.280274,-1.521 -2.802734,-1.521 -4.35791,-4.52881 -1.538086,-3.00781 -1.538086,-6.9043 0,-4.10156 1.691895,-7.12646 1.691894,-3.04199 4.956054,-4.61426 2.546387,-1.21338 6.853028,-1.21338 4.152832,0 6.203613,0.75196 2.067871,0.75195 3.417969,2.3413 1.367187,1.57227 2.050781,3.99903 l -7.468262,1.33301 q -0.461425,-1.41846 -1.572265,-2.17041 -1.09375,-0.75196 -2.802735,-0.75196 -2.546386,0 -4.067382,1.77735 -1.503907,1.76025 -1.503907,5.58838 0,4.06738 1.520996,5.81054 1.538086,1.74317 4.272461,1.74317 1.298828,0 2.478028,-0.37598 1.179199,-0.37598 2.700195,-1.28174 v -2.3584 z" style="font-weight:normal;font-family:&#39;Arial Black&#39;;-inkscape-font-specification:&#39;Arial Black, &#39;;fill:#ffffff" id="path3231"></path><path d="m -44.007601,573.07129 h 7.758789 V 598.125 h -7.758789 z" style="font-weight:normal;font-family:&#39;Arial Black&#39;;-inkscape-font-specification:&#39;Arial Black, &#39;;fill:#ffffff" id="path3233"></path><path d="m -15.272038,589.05029 v -5.2124 h 11.9628911 v 10.68115 q -3.4350586,2.34131 -6.0839844,3.1958 -2.6318357,0.83741 -6.2548827,0.83741 -4.460449,0 -7.280274,-1.521 -2.802734,-1.521 -4.35791,-4.52881 -1.538086,-3.00781 -1.538086,-6.9043 0,-4.10156 1.691895,-7.12646 1.691894,-3.04199 4.956055,-4.61426 2.546386,-1.21338 6.853027,-1.21338 4.152832,0 6.2036132,0.75196 2.0678711,0.75195 3.4179688,2.3413 1.3671875,1.57227 2.0507812,3.99903 l -7.4682612,1.33301 q -0.461426,-1.41846 -1.572266,-2.17041 -1.09375,-0.75196 -2.802734,-0.75196 -2.546387,0 -4.067383,1.77735 -1.503907,1.76025 -1.503907,5.58838 0,4.06738 1.520997,5.81054 1.538085,1.74317 4.27246,1.74317 1.298829,0 2.478028,-0.37598 1.179199,-0.37598 2.700195,-1.28174 v -2.3584 z" style="font-weight:normal;font-family:&#39;Arial Black&#39;;-inkscape-font-specification:&#39;Arial Black, &#39;;fill:#ffffff" id="path3235"></path><path d="m 4.1666489,573.07129 h 7.2290041 l 9.433594,13.85986 V 573.07129 H 28.12661 V 598.125 H 20.829247 L 11.446922,584.36768 V 598.125 H 4.1666489 Z" style="font-weight:normal;font-family:&#39;Arial Black&#39;;-inkscape-font-specification:&#39;Arial Black, &#39;;fill:#ffffff" id="path3237"></path><path d="m 51.171257,593.98926 h -8.818359 l -1.213379,4.13574 h -7.912598 l 9.416504,-25.05371 h 8.442383 l 9.416504,25.05371 h -8.100586 z m -1.623535,-5.41748 -2.768555,-9.00635 -2.751465,9.00635 z" style="font-weight:normal;font-family:&#39;Arial Black&#39;;-inkscape-font-specification:&#39;Arial Black, &#39;;fill:#ffffff" id="path3239"></path><path d="m 81.855057,587.88818 6.784668,2.05078 q -0.683594,2.85401 -2.153321,4.76807 -1.469726,1.91406 -3.657226,2.88818 -2.17041,0.97413 -5.53711,0.97413 -4.084472,0 -6.682128,-1.1792 -2.580567,-1.19629 -4.46045,-4.18702 -1.879882,-2.99072 -1.879882,-7.65625 0,-6.2207 3.298339,-9.55322 3.31543,-3.34961 9.365235,-3.34961 4.733886,0 7.434082,1.91407 2.717285,1.91406 4.033203,5.8789 l -6.835938,1.521 q -0.358886,-1.14502 -0.751953,-1.67481 -0.649414,-0.88867 -1.589355,-1.36718 -0.939942,-0.47852 -2.102051,-0.47852 -2.631836,0 -4.033203,2.11914 -1.05957,1.57227 -1.05957,4.93897 0,4.16992 1.264648,5.72509 1.264648,1.53809 3.554688,1.53809 2.221679,0 3.349609,-1.24756 1.145019,-1.24756 1.657715,-3.62305 z" style="font-weight:normal;font-family:&#39;Arial Black&#39;;-inkscape-font-specification:&#39;Arial Black, &#39;;fill:#ffffff" id="path3241"></path></g><g aria-label="CÔTE BLEUE" transform="matrix(1.4150193,0,0,1.4144801,188.49995,-652.62432)" id="text1216" style="font-weight:bold;font-size:35px;line-height:1.25;font-family:&#39;Frutiger Neue LT&#39;;-inkscape-font-specification:&#39;Frutiger Neue LT Bold&#39;;letter-spacing:2.82736px;white-space:pre;shape-inside:url(#rect1218);fill:#ffffff;stroke-width:0.141368"><path d="m -59.618164,587.88818 6.784668,2.05078 q -0.683594,2.85401 -2.15332,4.76807 -1.469727,1.91406 -3.657227,2.88818 -2.17041,0.97413 -5.537109,0.97413 -4.084473,0 -6.682129,-1.1792 -2.580567,-1.19629 -4.460449,-4.18702 -1.879883,-2.99072 -1.879883,-7.65625 0,-6.2207 3.29834,-9.55322 3.315429,-3.34961 9.365234,-3.34961 4.733887,0 7.434082,1.91407 2.717285,1.91406 4.033203,5.8789 l -6.835937,1.521 q -0.358887,-1.14502 -0.751954,-1.67481 -0.649414,-0.88867 -1.589355,-1.36718 -0.939941,-0.47852 -2.102051,-0.47852 -2.631836,0 -4.033203,2.11914 -1.05957,1.57227 -1.05957,4.93897 0,4.16992 1.264648,5.72509 1.264649,1.53809 3.554688,1.53809 2.221679,0 3.349609,-1.24756 1.14502,-1.24756 1.657715,-3.62305 z" style="font-weight:normal;font-family:&#39;Arial Black&#39;;-inkscape-font-specification:&#39;Arial Black, &#39;;fill:#ffffff" id="path3187"></path><path d="m -47.220491,585.61523 q 0,-6.13525 3.417968,-9.55322 3.417969,-3.41797 9.519043,-3.41797 6.254883,0 9.638672,3.3667 3.383789,3.34961 3.383789,9.39942 0,4.39209 -1.486816,7.21191 -1.469727,2.80273 -4.272461,4.375 -2.785645,1.55518 -6.955567,1.55518 -4.238281,0 -7.023925,-1.3501 -2.768555,-1.3501 -4.494629,-4.27246 -1.726074,-2.92237 -1.726074,-7.31446 z m 7.741699,0.0342 q 0,3.79395 1.401367,5.45166 1.418457,1.65772 3.845215,1.65772 2.495117,0 3.862305,-1.62354 1.367187,-1.62353 1.367187,-5.82763 0,-3.5376 -1.435547,-5.16114 -1.418457,-1.64062 -3.862305,-1.64062 -2.341308,0 -3.759765,1.65771 -1.418457,1.65772 -1.418457,5.48584 z m 2.854004,-18.98681 h 4.938965 l 3.793945,4.88769 h -4.238281 l -2.084961,-2.61474 -2.084961,2.61474 h -4.238282 z" style="font-weight:normal;font-family:&#39;Arial Black&#39;;-inkscape-font-specification:&#39;Arial Black, &#39;;fill:#ffffff" id="path3189"></path><path d="M -16.023991,573.07129 H 7.5087242 v 6.18652 H -0.3867836 V 598.125 h -7.7416992 v -18.86719 h -7.8955082 z" style="font-weight:normal;font-family:&#39;Arial Black&#39;;-inkscape-font-specification:&#39;Arial Black, &#39;;fill:#ffffff" id="path3191"></path><path d="m 13.822411,573.07129 h 20.74707 v 5.34912 H 21.5812 v 3.98193 h 12.048339 v 5.10987 H 21.5812 v 4.93896 H 34.945457 V 598.125 H 13.822411 Z" style="font-weight:normal;font-family:&#39;Arial Black&#39;;-inkscape-font-specification:&#39;Arial Black, &#39;;fill:#ffffff" id="path3193"></path><path d="m 56.459549,573.07129 h 14.492187 q 3.623047,0 5.5542,1.79443 1.948242,1.79444 1.948242,4.44336 0,2.22168 -1.384277,3.81104 -0.922852,1.05957 -2.700196,1.6748 2.700196,0.64942 3.964844,2.23877 1.281738,1.57227 1.281738,3.96485 0,1.94824 -0.905761,3.50341 -0.905762,1.55518 -2.478028,2.46094 -0.974121,0.56397 -2.939453,0.82031 -2.614746,0.3418 -3.469238,0.3418 H 56.459549 Z m 7.810059,9.82666 h 3.366699 q 1.811523,0 2.512207,-0.61524 0.717773,-0.63232 0.717773,-1.81152 0,-1.09375 -0.717773,-1.70898 -0.700684,-0.61524 -2.460938,-0.61524 h -3.417968 z m 0,9.84375 h 3.947753 q 1.999512,0 2.819825,-0.70068 0.820312,-0.71778 0.820312,-1.91407 0,-1.11084 -0.820312,-1.77734 -0.803223,-0.68359 -2.836914,-0.68359 h -3.930664 z" style="font-weight:normal;font-family:&#39;Arial Black&#39;;-inkscape-font-specification:&#39;Arial Black, &#39;;fill:#ffffff" id="path3195"></path><path d="m 86.493942,573.07129 h 7.741699 v 18.88428 H 106.31816 V 598.125 H 86.493942 Z" style="font-weight:normal;font-family:&#39;Arial Black&#39;;-inkscape-font-specification:&#39;Arial Black, &#39;;fill:#ffffff" id="path3197"></path><path d="m 112.64894,573.07129 h 20.74707 v 5.34912 h -12.98828 v 3.98193 h 12.04834 v 5.10987 h -12.04834 v 4.93896 h 13.36426 v 5.67383 h -21.12305 z" style="font-weight:normal;font-family:&#39;Arial Black&#39;;-inkscape-font-specification:&#39;Arial Black, &#39;;fill:#ffffff" id="path3199"></path><path d="m 157.07298,573.07129 h 7.72461 v 14.93652 q 0,2.22168 -0.70068,4.2041 -0.6836,1.96534 -2.17041,3.45215 -1.46973,1.46973 -3.09326,2.06787 -2.25586,0.83741 -5.41748,0.83741 -1.82862,0 -3.99903,-0.25635 -2.15332,-0.25635 -3.60595,-1.0083 -1.45264,-0.76905 -2.66602,-2.17041 -1.19629,-1.40137 -1.64062,-2.88819 -0.71778,-2.39257 -0.71778,-4.23828 v -14.93652 h 7.72461 v 15.29541 q 0,2.05078 1.12793,3.21289 1.14502,1.14502 3.16162,1.14502 1.99951,0 3.12744,-1.12793 1.14502,-1.14502 1.14502,-3.22998 z" style="font-weight:normal;font-family:&#39;Arial Black&#39;;-inkscape-font-specification:&#39;Arial Black, &#39;;fill:#ffffff" id="path3201"></path><path d="m 172.73482,573.07129 h 20.74707 v 5.34912 h -12.98828 v 3.98193 h 12.04834 v 5.10987 h -12.04834 v 4.93896 h 13.36425 v 5.67383 h -21.12304 z" style="font-weight:normal;font-family:&#39;Arial Black&#39;;-inkscape-font-specification:&#39;Arial Black, &#39;;fill:#ffffff" id="path3203"></path></g><g aria-label="FOOTBALL CLUB" transform="matrix(1.4150193,0,0,1.4144801,187.34651,-600.93517)" id="text1222" style="font-weight:bold;font-size:26.8599px;line-height:1.25;font-family:&#39;Frutiger Neue LT&#39;;-inkscape-font-specification:&#39;Frutiger Neue LT Bold&#39;;letter-spacing:2.1912px;white-space:pre;shape-inside:url(#rect1224);fill:#ffffff;stroke-width:0.141368"><path d="m -76.86782,571.36855 h 14.689008 v 4.13128 h -8.721599 v 3.35749 h 7.449426 v 3.88209 h -7.449426 v 7.856 h -5.967409 z" style="font-weight:normal;font-family:&#39;Arial Black&#39;;-inkscape-font-specification:&#39;Arial Black, &#39;;fill:#ffffff" id="path3206"></path><path d="m -57.535073,580.99509 q 0,-4.70835 2.623037,-7.33139 2.623037,-2.62303 7.305158,-2.62303 4.800158,0 7.396964,2.58369 2.596807,2.57057 2.596807,7.21335 0,3.3706 -1.141021,5.53461 -1.127906,2.15089 -3.278796,3.35748 -2.137775,1.19349 -5.337881,1.19349 -3.252566,0 -5.390341,-1.0361 -2.12466,-1.0361 -3.449294,-3.2788 -1.324633,-2.2427 -1.324633,-5.6133 z m 5.941179,0.0262 q 0,2.91157 1.075445,4.18375 1.08856,1.27217 2.950917,1.27217 1.914817,0 2.964031,-1.24594 1.049215,-1.24595 1.049215,-4.47228 0,-2.71485 -1.101675,-3.96079 -1.088561,-1.25906 -2.964032,-1.25906 -1.796781,0 -2.885341,1.27218 -1.08856,1.27217 -1.08856,4.20997 z" style="font-weight:normal;font-family:&#39;Arial Black&#39;;-inkscape-font-specification:&#39;Arial Black, &#39;;fill:#ffffff" id="path3208"></path><path d="m -32.969367,580.99509 q 0,-4.70835 2.623037,-7.33139 2.623037,-2.62303 7.305158,-2.62303 4.800158,0 7.396965,2.58369 2.596806,2.57057 2.596806,7.21335 0,3.3706 -1.141021,5.53461 -1.127906,2.15089 -3.278796,3.35748 -2.137775,1.19349 -5.33788,1.19349 -3.252566,0 -5.390342,-1.0361 -2.12466,-1.0361 -3.449293,-3.2788 -1.324634,-2.2427 -1.324634,-5.6133 z m 5.941179,0.0262 q 0,2.91157 1.075445,4.18375 1.08856,1.27217 2.950917,1.27217 1.914817,0 2.964032,-1.24594 1.049214,-1.24595 1.049214,-4.47228 0,-2.71485 -1.101675,-3.96079 -1.08856,-1.25906 -2.964032,-1.25906 -1.79678,0 -2.885341,1.27218 -1.08856,1.27217 -1.08856,4.20997 z" style="font-weight:normal;font-family:&#39;Arial Black&#39;;-inkscape-font-specification:&#39;Arial Black, &#39;;fill:#ffffff" id="path3210"></path><path d="M -9.7020601,571.36855 H 8.3575501 v 4.74769 H 2.2983345 v 14.47917 h -5.941179 v -14.47917 h -6.0592156 z" style="font-weight:normal;font-family:&#39;Arial Black&#39;;-inkscape-font-specification:&#39;Arial Black, &#39;;fill:#ffffff" id="path3212"></path><path d="m 13.250474,571.36855 h 11.121677 q 2.780419,0 4.262435,1.37709 1.495131,1.37709 1.495131,3.40995 0,1.70497 -1.06233,2.92468 -0.70822,0.81315 -2.072199,1.28529 2.072199,0.49838 3.042723,1.71809 0.983639,1.2066 0.983639,3.04272 0,1.49514 -0.695105,2.68862 -0.695105,1.19348 -1.901702,1.88858 -0.747566,0.43281 -2.255812,0.62953 -2.006623,0.26231 -2.662383,0.26231 H 13.250474 Z m 5.993639,7.54123 h 2.583692 q 1.390209,0 1.927932,-0.47215 0.550838,-0.48526 0.550838,-1.39021 0,-0.83937 -0.550838,-1.31152 -0.537723,-0.47214 -1.888587,-0.47214 h -2.623037 z m 0,7.55434 h 3.029608 q 1.534477,0 2.164006,-0.53772 0.629529,-0.55084 0.629529,-1.4689 0,-0.85249 -0.629529,-1.36398 -0.616414,-0.52461 -2.177121,-0.52461 h -3.016493 z" style="font-weight:normal;font-family:&#39;Arial Black&#39;;-inkscape-font-specification:&#39;Arial Black, &#39;;fill:#ffffff" id="path3214"></path><path d="m 47.69192,587.42153 h -6.767436 l -0.931178,3.17388 h -6.072331 l 7.226467,-19.22686 h 6.478902 l 7.226467,19.22686 h -6.216598 z m -1.245943,-4.15751 -2.12466,-6.9117 -2.111545,6.9117 z" style="font-weight:normal;font-family:&#39;Arial Black&#39;;-inkscape-font-specification:&#39;Arial Black, &#39;;fill:#ffffff" id="path3216"></path><path d="m 58.945717,571.36855 h 5.941179 v 14.49228 h 9.272436 v 4.73458 H 58.945717 Z" style="font-weight:normal;font-family:&#39;Arial Black&#39;;-inkscape-font-specification:&#39;Arial Black, &#39;;fill:#ffffff" id="path3218"></path><path d="m 79.052254,571.36855 h 5.941179 v 14.49228 h 9.272436 v 4.73458 H 79.052254 Z" style="font-weight:normal;font-family:&#39;Arial Black&#39;;-inkscape-font-specification:&#39;Arial Black, &#39;;fill:#ffffff" id="path3220"></path><path d="m 123.10809,582.73941 5.20673,1.57382 q -0.52461,2.19024 -1.65251,3.65914 -1.12791,1.4689 -2.80665,2.21647 -1.66563,0.74756 -4.24932,0.74756 -3.13453,0 -5.12804,-0.90495 -1.98039,-0.91806 -3.42306,-3.21322 -1.44267,-2.29515 -1.44267,-5.8756 0,-4.77393 2.53123,-7.33139 2.54434,-2.57057 7.18712,-2.57057 3.6329,0 5.7051,1.4689 2.08532,1.4689 3.09519,4.51162 l -5.24608,1.16725 q -0.27542,-0.87872 -0.57706,-1.28529 -0.49838,-0.68199 -1.21972,-1.04921 -0.72133,-0.36723 -1.61316,-0.36723 -2.01974,0 -3.09519,1.62629 -0.81314,1.20659 -0.81314,3.79029 0,3.2001 0.97052,4.39358 0.97053,1.18037 2.72796,1.18037 1.70498,0 2.57058,-0.95741 0.87872,-0.95741 1.27217,-2.78042 z" style="font-weight:normal;font-family:&#39;Arial Black&#39;;-inkscape-font-specification:&#39;Arial Black, &#39;;fill:#ffffff" id="path3222"></path><path d="m 133.39135,571.36855 h 5.94118 v 14.49228 h 9.27244 v 4.73458 h -15.21362 z" style="font-weight:normal;font-family:&#39;Arial Black&#39;;-inkscape-font-specification:&#39;Arial Black, &#39;;fill:#ffffff" id="path3224"></path><path d="m 165.31469,571.36855 h 5.92806 v 11.46267 q 0,1.70497 -0.53772,3.22633 -0.52461,1.50825 -1.66563,2.64927 -1.1279,1.12791 -2.37385,1.58694 -1.7312,0.64264 -4.15751,0.64264 -1.40332,0 -3.06895,-0.19673 -1.65252,-0.19672 -2.76731,-0.77379 -1.11479,-0.59019 -2.04597,-1.66563 -0.91806,-1.07545 -1.25905,-2.21647 -0.55084,-1.83612 -0.55084,-3.25256 v -11.46267 h 5.92806 v 11.73809 q 0,1.57382 0.8656,2.46565 0.87872,0.87872 2.42631,0.87872 1.53448,0 2.40008,-0.8656 0.87872,-0.87872 0.87872,-2.47877 z" style="font-weight:normal;font-family:&#39;Arial Black&#39;;-inkscape-font-specification:&#39;Arial Black, &#39;;fill:#ffffff" id="path3226"></path><path d="m 177.38162,571.36855 h 11.12168 q 2.78042,0 4.26244,1.37709 1.49513,1.37709 1.49513,3.40995 0,1.70497 -1.06233,2.92468 -0.70822,0.81315 -2.0722,1.28529 2.0722,0.49838 3.04272,1.71809 0.98364,1.2066 0.98364,3.04272 0,1.49514 -0.69511,2.68862 -0.6951,1.19348 -1.9017,1.88858 -0.74756,0.43281 -2.25581,0.62953 -2.00662,0.26231 -2.66238,0.26231 h -10.25608 z m 5.99364,7.54123 h 2.58369 q 1.39021,0 1.92794,-0.47215 0.55083,-0.48526 0.55083,-1.39021 0,-0.83937 -0.55083,-1.31152 -0.53773,-0.47214 -1.88859,-0.47214 h -2.62304 z m 0,7.55434 h 3.02961 q 1.53448,0 2.16401,-0.53772 0.62952,-0.55084 0.62952,-1.4689 0,-0.85249 -0.62952,-1.36398 -0.61642,-0.52461 -2.17712,-0.52461 h -3.0165 z" style="font-weight:normal;font-family:&#39;Arial Black&#39;;-inkscape-font-specification:&#39;Arial Black, &#39;;fill:#ffffff" id="path3228"></path></g></g></g></svg>